<?xml version="1.0" encoding="utf-8"?>
<!-- Generator: Adobe Illustrator 21.0.0, SVG Export Plug-In . SVG Version: 6.00 Build 0)  -->
<svg version="1.1" xmlns="http://www.w3.org/2000/svg" xmlns:xlink="http://www.w3.org/1999/xlink" x="0px" y="0px"
	 viewBox="0 0 1400 980" style="enable-background:new 0 0 1400 980;" xml:space="preserve">
<style type="text/css">
	.st0{fill:#262262;}
	.st1{fill:#613BBC;}
	.st2{fill:#7745D8;}
	.st3{fill:#9174E8;}
	.st4{fill:#F1F2F2;}
	.st5{fill:#120533;}
	.st6{opacity:0.1;fill:#FFFFFF;}
	.st7{opacity:0.3;fill:#FFFFFF;}
</style>
<g id="Background">
	<rect class="st0" width="1400" height="980"/>
</g>
<g id="Object">
	<g>
		<path class="st1" d="M628.5,445.2c0,0-127.3,43-134.2,110.3c-11.5,113.2,71.7,98.6,116.3,129.3c44.7,30.7,30.7,64.7-10.7,77.4
			c-29,8.9-46.7,18.6-45.3,49.9c1.3,31.3,26.7,47.7,56.7,36.3c13.5-5.1,16.7-22.7,16.7-22.7c-8.7,12.3-53.1,30.1-46.3-13
			c3.6-22.9,38.3-22,67.7-42.7c25.7-18.1,40-52,15.3-96.7c-35.2-63.8-113.5-40.6-114.8-88.6c-1.2-42.8,110.7-68.2,110.7-68.2
			L628.5,445.2z"/>
		<path class="st2" d="M559.7,614.8c-14.7-13.7-9.8-30-9.8-30c1.3,48,79.6,24.9,114.8,88.6c9.4,17,13.1,32.4,12.8,46
			c-5.5-18.4-15.3-40.2-33.8-59C619.7,636.2,574.3,628.5,559.7,614.8z"/>
		<path class="st2" d="M494.3,555.5c4.7-46.4,66.5-81.2,104.6-98.4L588,471.8c0,0-55,39.7-77,82.3c-12.8,24.8-10.9,51.6-7.2,69.8
			C495.3,608.6,491.2,587,494.3,555.5z"/>
		<path class="st3" d="M526.2,535.9c-4.4,6.8-4.2,14.8,0.6,17.9c4.7,3.1,12.2,0.1,16.6-6.7c4.4-6.8,4.2-14.8-0.6-17.9
			C538.1,526.1,530.6,529.1,526.2,535.9z M526.4,537.6c3.2-4.9,8.6-7.1,12-4.9c3.4,2.2,3.6,8,0.4,13c-3.2,4.9-8.6,7.1-12,4.9
			C523.4,548.3,523.2,542.5,526.4,537.6z"/>
		<path class="st3" d="M549.3,511.9c-4.4,6.8-4.2,14.8,0.6,17.9c4.7,3.1,12.2,0.1,16.6-6.7c4.4-6.8,4.2-14.8-0.6-17.9
			C561.1,502.1,553.7,505.1,549.3,511.9z M549.5,513.6c3.2-4.9,8.6-7.1,12-4.9c3.4,2.2,3.6,8,0.4,13c-3.2,4.9-8.6,7.1-12,4.9
			C546.5,524.3,546.3,518.5,549.5,513.6z"/>
		<path class="st3" d="M544.2,547.9c-4.4,6.8-4.2,14.8,0.6,17.9c4.7,3.1,12.2,0.1,16.6-6.7c4.4-6.8,4.2-14.8-0.6-17.9
			C556,538,548.6,541,544.2,547.9z M544.4,549.5c3.2-4.9,8.6-7.1,12-4.9c3.4,2.2,3.6,8,0.4,13s-8.6,7.1-12,4.9
			C541.4,560.2,541.2,554.4,544.4,549.5z"/>
		<path class="st3" d="M509.2,567.8c-2.9,7.1-1.2,14.6,3.7,16.6c5,2,11.4-2.1,14.3-9.2c2.9-7.1,1.2-14.6-3.7-16.6
			C518.5,556.5,512.1,560.7,509.2,567.8z M509.7,569.3c2.1-5.2,6.7-8.2,10.3-6.7c3.6,1.5,4.8,6.8,2.7,12c-2.1,5.2-6.7,8.2-10.3,6.7
			C508.8,579.8,507.6,574.4,509.7,569.3z"/>
		<path class="st3" d="M527.2,577.3c-2.9,7.1-1.2,14.6,3.7,16.6c5,2,11.4-2.1,14.3-9.2c2.9-7.1,1.2-14.6-3.7-16.6
			C536.6,566,530.2,570.1,527.2,577.3z M527.8,578.8c2.1-5.2,6.7-8.2,10.3-6.7c3.6,1.5,4.8,6.8,2.7,12s-6.7,8.2-10.3,6.7
			C526.9,589.3,525.6,583.9,527.8,578.8z"/>
		<path class="st3" d="M581.3,668.7c-2.8-2.2-4.7-5.1-5.2-7.8c1-0.3,1.9-0.6,2.9-0.9c-1,2.5,0.4,6.2,3.6,8.6c3.6,2.8,8.1,3,10.1,0.5
			s0.6-6.8-3-9.6c-1.1-0.8-2.2-1.4-3.4-1.8c1.6-0.5,3.3-1,4.9-1.5c4.9,3.9,6.7,9.8,4,13.2C592.5,672.9,586.3,672.6,581.3,668.7z"/>
		<path class="st3" d="M592.3,655.8c0.4-0.1,0.8-0.3,1.3-0.4c0.7,0.9,1.6,1.8,2.6,2.6c4.4,3.4,9.6,4,11.7,1.3c1.6-2,0.9-5.3-1.3-8.3
			c1.2-0.4,2.3-0.9,3.4-1.3c2.3,3.7,2.8,7.6,0.9,10.1c-2.9,3.7-10.2,3-16.2-1.7C593.8,657.3,593,656.6,592.3,655.8z"/>
		<path class="st3" d="M611.8,684.4c5,3.9,11.2,4.2,13.9,0.7c2.7-3.5,0.8-9.4-4.1-13.3s-11.2-4.2-13.9-0.7
			C605,674.6,606.8,680.5,611.8,684.4z M613.1,684.3c-3.6-2.8-4.9-7.1-3-9.6c2-2.5,6.5-2.3,10.1,0.5c3.6,2.8,4.9,7.1,3,9.6
			C621.2,687.4,616.7,687.1,613.1,684.3z"/>
		<path class="st3" d="M625.2,673.7c6,4.7,13.3,5.5,16.2,1.7c2.9-3.7,0.4-10.6-5.7-15.3c-6-4.7-13.3-5.5-16.2-1.7
			C616.6,662.2,619.2,669.1,625.2,673.7z M626.7,673.7c-4.4-3.4-6.2-8.3-4.1-11.1c2.1-2.7,7.4-2.1,11.7,1.3
			c4.4,3.4,6.2,8.3,4.1,11.1C636.3,677.7,631,677.1,626.7,673.7z"/>
		<path class="st3" d="M632.2,702.9c3.9,4.4,9.5,5.8,12.6,3.1c3.1-2.7,2.4-8.5-1.5-12.9s-9.5-5.8-12.6-3.1
			C627.7,692.7,628.3,698.5,632.2,702.9z M633.4,703c-2.8-3.2-3.3-7.4-1.1-9.3c2.2-2,6.3-1,9.1,2.2c2.8,3.2,3.3,7.4,1.1,9.3
			C640.3,707.2,636.2,706.2,633.4,703z"/>
		<path class="st3" d="M646.4,695.4c4.7,5.4,11.2,7.3,14.6,4.4c3.3-2.9,2.2-9.6-2.5-15c-4.7-5.4-11.2-7.3-14.6-4.4
			C640.5,683.4,641.7,690.1,646.4,695.4z M647.7,695.7c-3.4-3.9-4.2-8.7-1.8-10.9c2.4-2.1,7.1-0.7,10.5,3.2
			c3.4,3.9,4.2,8.7,1.8,10.9C655.9,701,651.2,699.6,647.7,695.7z"/>
		<path class="st3" d="M643.9,722c2.2,4.9,6.7,7.7,10.1,6.2c3.4-1.5,4.5-6.7,2.3-11.6s-6.7-7.7-10.1-6.2
			C642.7,711.9,641.7,717.1,643.9,722z M644.8,722.5c-1.6-3.6-0.8-7.3,1.7-8.4c2.5-1.1,5.8,0.9,7.3,4.5c1.6,3.6,0.8,7.3-1.7,8.4
			C649.7,728,646.4,726,644.8,722.5z"/>
		<path class="st3" d="M658.2,719.5c2.6,6,7.7,9.5,11.4,7.9c3.7-1.6,4.6-7.8,2-13.7s-7.7-9.5-11.4-7.9
			C656.5,707.3,655.6,713.5,658.2,719.5z M659.3,720.1c-1.9-4.3-1.3-8.8,1.4-9.9c2.7-1.2,6.4,1.4,8.3,5.7c1.9,4.3,1.3,8.8-1.4,9.9
			C664.9,726.9,661.2,724.4,659.3,720.1z"/>
		<path class="st3" d="M643.9,737.3c-1,4.5,0.7,8.8,3.9,9.5c3.2,0.7,6.5-2.4,7.6-6.9c1-4.5-0.7-8.8-3.9-9.5
			C648.3,729.7,644.9,732.8,643.9,737.3z M644.3,738.1c0.7-3.3,3.2-5.5,5.5-5s3.5,3.6,2.8,6.9c-0.7,3.3-3.2,5.5-5.5,5
			C644.8,744.5,643.6,741.4,644.3,738.1z"/>
		<path class="st3" d="M655.2,742.9c-1.2,5.5,0.5,10.6,3.9,11.3c3.4,0.8,7.2-3.1,8.4-8.6c1.2-5.5-0.5-10.6-3.9-11.3
			C660.1,733.5,656.4,737.4,655.2,742.9z M655.6,743.9c0.9-4,3.6-6.8,6.1-6.2c2.5,0.6,3.7,4.2,2.8,8.2c-0.9,4-3.6,6.8-6.1,6.2
			C656,751.5,654.7,747.8,655.6,743.9z"/>
		<path class="st3" d="M502.8,607.5c0.3,8.4,4.7,15.1,9.8,14.9c5.1-0.2,9-7.2,8.6-15.6c-0.3-8.4-4.7-15.1-9.8-14.9
			C506.4,592,502.5,599,502.8,607.5z M503.9,608.7c-0.2-6.1,2.6-11.2,6.3-11.3c3.7-0.1,6.9,4.7,7.1,10.8c0.2,6.1-2.6,11.2-6.3,11.3
			C507.3,619.6,504.1,614.8,503.9,608.7z"/>
		<path class="st3" d="M525,610.3c0,7.1,3.4,12.8,7.6,12.8c4.2,0,7.5-5.8,7.5-12.9c0-7.1-3.4-12.8-7.6-12.8S525,603.2,525,610.3z
			 M525.8,611.3c0-5.1,2.4-9.3,5.4-9.3c3,0,5.5,4.1,5.5,9.3s-2.4,9.3-5.4,9.3C528.3,620.6,525.8,616.5,525.8,611.3z"/>
		<path class="st3" d="M518.5,639.8c3.8,5.2,9.4,7.6,12.5,5.4c3.1-2.2,2.4-8.3-1.4-13.5c-3.8-5.2-9.4-7.6-12.5-5.4
			C514.1,628.5,514.7,634.6,518.5,639.8z M519.7,640.2c-2.8-3.8-3.2-8.2-1-9.8c2.2-1.6,6.3,0.1,9,3.9c2.8,3.8,3.2,8.2,1,9.8
			C526.5,645.7,522.5,644,519.7,640.2z"/>
		<path class="st3" d="M540.5,623.7c2.4-1.3,5.6-0.4,8.4,2c-1.7,0.6-3.3,1.3-5,2c-0.9-0.1-1.7,0-2.5,0.4c-0.5,0.3-1,0.7-1.3,1.2
			c-0.9,0.4-1.7,0.8-2.6,1.2C537.4,627.4,538.4,624.8,540.5,623.7z"/>
		<path class="st1" d="M771.5,445.2c0,0,127.3,43,134.2,110.3c11.5,113.2-71.7,98.6-116.3,129.3c-44.7,30.7-30.7,64.7,10.7,77.4
			c29,8.9,46.7,18.6,45.3,49.9s-26.7,47.7-56.7,36.3c-13.5-5.1-16.7-22.7-16.7-22.7c8.7,12.3,53.1,30.1,46.3-13
			c-3.6-22.9-38.3-22-67.7-42.7c-25.7-18.1-40-52-15.3-96.7c35.2-63.8,113.5-40.6,114.8-88.6c1.2-42.8-110.7-68.2-110.7-68.2
			L771.5,445.2z"/>
		<path class="st2" d="M840.3,614.8c14.7-13.7,9.8-30,9.8-30c-1.3,48-79.6,24.9-114.8,88.6c-9.4,17-13.1,32.4-12.8,46
			c5.5-18.4,15.3-40.2,33.8-59C780.3,636.2,825.7,628.5,840.3,614.8z"/>
		<path class="st2" d="M905.7,555.5c-4.7-46.4-66.5-81.2-104.6-98.4l10.9,14.7c0,0,55,39.7,77,82.3c12.8,24.8,10.9,51.6,7.2,69.8
			C904.7,608.6,908.8,587,905.7,555.5z"/>
		<path class="st3" d="M857.2,529.2c-4.7,3.1-5,11.1-0.6,17.9c4.4,6.8,11.9,9.8,16.6,6.7c4.7-3.1,5-11.1,0.6-17.9
			C869.4,529.1,861.9,526.1,857.2,529.2z M873.2,550.5c-3.4,2.2-8.8,0-12-4.9c-3.2-4.9-3-10.7,0.4-13c3.4-2.2,8.8,0,12,4.9
			S876.6,548.3,873.2,550.5z"/>
		<path class="st3" d="M834.1,505.2c-4.7,3.1-5,11.1-0.6,17.9s11.9,9.8,16.6,6.7c4.7-3.1,5-11.1,0.6-17.9
			C846.3,505.1,838.9,502.1,834.1,505.2z M850.1,526.5c-3.4,2.2-8.8,0-12-4.9c-3.2-4.9-3-10.7,0.4-13c3.4-2.2,8.8,0,12,4.9
			C853.7,518.5,853.5,524.3,850.1,526.5z"/>
		<path class="st3" d="M839.2,541.1c-4.7,3.1-5,11.1-0.6,17.9c4.4,6.8,11.9,9.8,16.6,6.7c4.7-3.1,5-11.1,0.6-17.9
			C851.4,541,844,538,839.2,541.1z M855.2,562.4c-3.4,2.2-8.8,0-12-4.9s-3-10.7,0.4-13c3.4-2.2,8.8,0,12,4.9
			S858.6,560.2,855.2,562.4z"/>
		<path class="st3" d="M876.6,558.5c-5,2-6.6,9.5-3.7,16.6c2.9,7.1,9.3,11.3,14.3,9.2c5-2,6.6-9.5,3.7-16.6
			C887.9,560.7,881.5,556.5,876.6,558.5z M887.6,581.3c-3.6,1.5-8.2-1.5-10.3-6.7c-2.1-5.2-0.9-10.5,2.7-12
			c3.6-1.5,8.2,1.5,10.3,6.7S891.2,579.8,887.6,581.3z"/>
		<path class="st3" d="M858.5,568c-5,2-6.6,9.5-3.7,16.6c2.9,7.1,9.3,11.3,14.3,9.2c5-2,6.6-9.5,3.7-16.6
			C869.8,570.1,863.4,566,858.5,568z M869.5,590.8c-3.6,1.5-8.2-1.5-10.3-6.7s-0.9-10.5,2.7-12s8.2,1.5,10.3,6.7
			C874.4,583.9,873.1,589.3,869.5,590.8z"/>
		<path class="st3" d="M818.7,668.7c2.8-2.2,4.7-5.1,5.2-7.8c-1-0.3-1.9-0.6-2.9-0.9c1,2.5-0.4,6.2-3.6,8.6c-3.6,2.8-8.1,3-10.1,0.5
			s-0.6-6.8,3-9.6c1.1-0.8,2.2-1.4,3.4-1.8c-1.6-0.5-3.3-1-4.9-1.5c-4.9,3.9-6.7,9.8-4,13.2C807.5,672.9,813.7,672.6,818.7,668.7z"
			/>
		<path class="st3" d="M807.7,655.8c-0.4-0.1-0.8-0.3-1.3-0.4c-0.7,0.9-1.6,1.8-2.6,2.6c-4.4,3.4-9.6,4-11.7,1.3
			c-1.6-2-0.9-5.3,1.3-8.3c-1.2-0.4-2.3-0.9-3.4-1.3c-2.3,3.7-2.8,7.6-0.9,10.1c2.9,3.7,10.2,3,16.2-1.7
			C806.2,657.3,807,656.6,807.7,655.8z"/>
		<path class="st3" d="M792.3,671.1c-2.7-3.5-8.9-3.2-13.9,0.7c-5,3.9-6.8,9.8-4.1,13.3c2.7,3.5,8.9,3.2,13.9-0.7
			C793.2,680.5,795,674.6,792.3,671.1z M776.9,684.9c-2-2.5-0.6-6.8,3-9.6c3.6-2.8,8.1-3,10.1-0.5c2,2.5,0.6,6.8-3,9.6
			C783.3,687.1,778.8,687.4,776.9,684.9z"/>
		<path class="st3" d="M780.5,658.5c-2.9-3.7-10.2-3-16.2,1.7c-6,4.7-8.6,11.5-5.7,15.3s10.2,3,16.2-1.7
			C780.8,669.1,783.4,662.2,780.5,658.5z M761.6,675c-2.1-2.7-0.3-7.7,4.1-11.1c4.4-3.4,9.6-4,11.7-1.3c2.1,2.7,0.3,7.7-4.1,11.1
			S763.7,677.7,761.6,675z"/>
		<path class="st3" d="M769.2,690c-3.1-2.7-8.7-1.3-12.6,3.1s-4.6,10.2-1.5,12.9c3.1,2.7,8.7,1.3,12.6-3.1S772.3,692.7,769.2,690z
			 M757.5,705.3c-2.2-2-1.8-6.1,1.1-9.3c2.8-3.2,6.9-4.2,9.1-2.2s1.8,6.1-1.1,9.3C763.8,706.2,759.7,707.2,757.5,705.3z"/>
		<path class="st3" d="M756.2,680.4c-3.3-2.9-9.8-0.9-14.6,4.4c-4.7,5.4-5.9,12.1-2.5,15c3.3,2.9,9.8,0.9,14.6-4.4
			S759.5,683.4,756.2,680.4z M741.7,698.9c-2.4-2.1-1.6-7,1.8-10.9c3.4-3.9,8.1-5.3,10.5-3.2c2.4,2.1,1.6,7-1.8,10.9
			C748.8,699.6,744.1,701,741.7,698.9z"/>
		<path class="st3" d="M753.8,710.4c-3.4-1.5-8,1.3-10.1,6.2c-2.2,4.9-1.1,10.1,2.3,11.6c3.4,1.5,8-1.3,10.1-6.2
			S757.3,711.9,753.8,710.4z M747.9,726.9c-2.5-1.1-3.2-4.9-1.7-8.4s4.8-5.6,7.3-4.5c2.5,1.1,3.2,4.9,1.7,8.4
			C753.6,726,750.3,728,747.9,726.9z"/>
		<path class="st3" d="M739.8,705.7c-3.7-1.6-8.8,1.9-11.4,7.9c-2.6,6-1.7,12.1,2,13.7c3.7,1.6,8.8-1.9,11.4-7.9
			S743.5,707.3,739.8,705.7z M732.4,725.8c-2.7-1.2-3.3-5.6-1.4-9.9c1.9-4.3,5.6-6.9,8.3-5.7c2.7,1.2,3.3,5.6,1.4,9.9
			C738.8,724.4,735.1,726.9,732.4,725.8z"/>
		<path class="st3" d="M748.6,730.4c-3.2,0.7-4.9,5-3.9,9.5c1,4.5,4.4,7.6,7.6,6.9c3.2-0.7,4.9-5,3.9-9.5
			C755.1,732.8,751.7,729.7,748.6,730.4z M752.9,745c-2.3,0.5-4.7-1.7-5.5-5c-0.7-3.3,0.5-6.3,2.8-6.9s4.7,1.7,5.5,5
			S755.2,744.5,752.9,745z"/>
		<path class="st3" d="M736.5,734.3c-3.4,0.8-5.1,5.8-3.9,11.3c1.2,5.5,5,9.3,8.4,8.6c3.4-0.8,5.1-5.8,3.9-11.3
			C743.6,737.4,739.9,733.5,736.5,734.3z M741.6,752.1c-2.5,0.6-5.2-2.2-6.1-6.2c-0.9-4,0.4-7.6,2.8-8.2c2.5-0.6,5.2,2.2,6.1,6.2
			C745.3,747.8,744,751.5,741.6,752.1z"/>
		<path class="st3" d="M888.5,591.8c-5.1-0.2-9.5,6.5-9.8,14.9c-0.3,8.4,3.5,15.4,8.6,15.6c5.1,0.2,9.5-6.5,9.8-14.9
			C897.5,599,893.6,592,888.5,591.8z M889,619.5c-3.7-0.1-6.5-5.2-6.3-11.3c0.2-6.1,3.4-10.9,7.1-10.8c3.7,0.1,6.5,5.2,6.3,11.3
			C895.9,614.8,892.7,619.6,889,619.5z"/>
		<path class="st3" d="M867.5,597.4c-4.2,0-7.6,5.7-7.6,12.8s3.3,12.9,7.5,12.9c4.2,0,7.6-5.7,7.6-12.8
			C875,603.2,871.6,597.4,867.5,597.4z M868.7,620.6c-3,0-5.5-4.2-5.4-9.3c0-5.1,2.5-9.3,5.5-9.3c3,0,5.5,4.2,5.4,9.3
			C874.2,616.5,871.7,620.6,868.7,620.6z"/>
		<path class="st2" d="M912,354.2c-34.7,8.7-78.7,71.3-123.3,43.3c-44.7-28,84.7-108,32.4-216.7C792.5,121.4,700,128.2,700,128.2
			s-92.5-6.8-121.1,52.7c-52.2,108.7,77.1,188.7,32.4,216.7c-44.7,28-88.7-34.7-123.3-43.3c-34.7-8.7-96.7,13.3-88.7,73.3
			s62,68,75.3,64.7c13.3-3.3,54-4,59.3,3.3c5.3,7.3,14,16,15.3,13.3s-6.6-36.7-34.6-43.3c-28-6.7-64.7,4-80-19.3
			c-15.3-23.3,13.3-56,34-50.7c20.7,5.3,58,64,87.3,73.3s48,5.8,48,5.8s-20.3,15.4-30.5,53.4c-10,37.3,9.9,58.8,5.4,80.8
			c-3.9,18.9-83,13.5-81,80.2s68,80.7,87.3,70c22-12.2,20.7-41.3-4.7-53.3c0,0,15.2,34.3-4.7,32c-35-4-44.8-32.8-39.5-51.5
			c8-28,87.6-28,98.9-55.3c11.3-27.3-4-58.7,6.7-75.3c10.7-16.7,58-40,58-40s47.3,23.3,58,40c10.7,16.7-4.7,48,6.7,75.3
			c11.3,27.3,90.9,27.3,98.9,55.3c5.3,18.7-4.5,47.5-39.5,51.5c-19.9,2.3-4.7-32-4.7-32c-25.3,12-26.7,41.2-4.7,53.3
			c19.3,10.7,85.3-3.3,87.3-70s-77.1-61.2-81-80.2c-4.5-22,15.4-43.4,5.4-80.8c-10.2-38-30.5-53.4-30.5-53.4s18.6,3.5,48-5.8
			s66.7-68,87.3-73.3c20.7-5.3,49.3,27.3,34,50.7c-15.3,23.3-52,12.7-80,19.3c-28,6.7-36,40.7-34.6,43.3s10-6,15.3-13.3
			c5.3-7.3,46-6.7,59.3-3.3c13.3,3.3,67.3-4.7,75.3-64.7S946.7,345.5,912,354.2z"/>
		<g>
			<ellipse transform="matrix(0.9945 -0.105 0.105 0.9945 -42.807 86.6089)" class="st1" cx="801.4" cy="450" rx="8.3" ry="6.7"/>
			
				<ellipse transform="matrix(0.9945 -0.105 0.105 0.9945 -43.2786 88.1209)" class="st1" cx="815.5" cy="455.2" rx="5.3" ry="4.3"/>
			<ellipse transform="matrix(0.9945 -0.105 0.105 0.9945 -42.2567 89.2091)" class="st1" cx="826.3" cy="446" rx="7.3" ry="5.9"/>
			<ellipse transform="matrix(0.9945 -0.105 0.105 0.9945 -41.3271 87.8637)" class="st1" cx="814" cy="436.5" rx="5.9" ry="4.8"/>
			<ellipse transform="matrix(0.9945 -0.105 0.105 0.9945 -42.2508 87.9575)" class="st1" cx="814.4" cy="445.3" rx="2" ry="1.6"/>
			<ellipse transform="matrix(0.9945 -0.105 0.105 0.9945 -43.7397 86.9727)" class="st1" cx="804.3" cy="459" rx="2" ry="1.6"/>
			<ellipse transform="matrix(0.9945 -0.105 0.105 0.9945 -41.6184 86.4199)" class="st1" cx="800.1" cy="438.6" rx="2" ry="1.6"/>
			<ellipse transform="matrix(0.9945 -0.105 0.105 0.9945 -42.8127 83.3271)" class="st1" cx="770.2" cy="448.4" rx="2" ry="1.6"/>
			
				<ellipse transform="matrix(0.9945 -0.105 0.105 0.9945 -40.9495 89.1166)" class="st1" cx="826.1" cy="433.6" rx="2.8" ry="2.3"/>
			<ellipse transform="matrix(0.9945 -0.105 0.105 0.9945 -43.4148 85.0914)" class="st1" cx="786.6" cy="455" rx="2.8" ry="2.3"/>
			<ellipse transform="matrix(0.9945 -0.105 0.105 0.9945 -41.487 91.2511)" class="st1" cx="846.1" cy="439.7" rx="2.8" ry="2.3"/>
			
				<ellipse transform="matrix(0.9945 -0.105 0.105 0.9945 -42.4346 84.9354)" class="st1" cx="785.6" cy="445.6" rx="2.8" ry="2.3"/>
			
				<ellipse transform="matrix(0.9945 -0.105 0.105 0.9945 -42.8048 90.4342)" class="st1" cx="837.7" cy="451.8" rx="3.4" ry="2.7"/>
			<ellipse transform="matrix(0.9945 -0.105 0.105 0.9945 -43.341 89.4791)" class="st1" cx="828.4" cy="456.5" rx="2" ry="1.6"/>
		</g>
		<g>
			
				<ellipse transform="matrix(0.7837 -0.6212 0.6212 0.7837 -151.0238 566.3001)" class="st1" cx="737.5" cy="500" rx="6.7" ry="8.3"/>
			
				<ellipse transform="matrix(0.7837 -0.6212 0.6212 0.7837 -159.4971 571.4402)" class="st1" cx="740.7" cy="514.7" rx="4.3" ry="5.3"/>
			
				<ellipse transform="matrix(0.7837 -0.6212 0.6212 0.7837 -159.2093 580.7762)" class="st1" cx="754.2" cy="519" rx="5.9" ry="7.3"/>
			
				<ellipse transform="matrix(0.7837 -0.6212 0.6212 0.7837 -149.2772 578.3146)" class="st1" cx="755.7" cy="503.5" rx="4.8" ry="5.9"/>
			
				<ellipse transform="matrix(0.7837 -0.6212 0.6212 0.7837 -153.9988 574.9291)" class="st1" cx="748.4" cy="508.6" rx="1.6" ry="2"/>
			
				<ellipse transform="matrix(0.7837 -0.6212 0.6212 0.7837 -156.9056 564.1444)" class="st1" cx="731.5" cy="507.3" rx="1.6" ry="2"/>
			
				<ellipse transform="matrix(0.7837 -0.6212 0.6212 0.7837 -144.6649 570.3351)" class="st1" cx="746.5" cy="492.9" rx="1.6" ry="2"/>
			
				<ellipse transform="matrix(0.7837 -0.6212 0.6212 0.7837 -137.461 550.8813)" class="st1" cx="722.2" cy="472.8" rx="1.6" ry="2"/>
			
				<ellipse transform="matrix(0.7837 -0.6212 0.6212 0.7837 -152.6939 585.7553)" class="st1" cx="764.6" cy="512.1" rx="2.3" ry="2.8"/>
			
				<ellipse transform="matrix(0.7837 -0.6212 0.6212 0.7837 -147.5907 556.6643)" class="st1" cx="725.4" cy="490.2" rx="2.3" ry="2.8"/>
			
				<ellipse transform="matrix(0.7837 -0.6212 0.6212 0.7837 -164.0542 593.5427)" class="st1" cx="770.1" cy="532.3" rx="2.3" ry="2.8"/>
			
				<ellipse transform="matrix(0.7837 -0.6212 0.6212 0.7837 -142.347 559.9916)" class="st1" cx="732.8" cy="484.4" rx="2.3" ry="2.8"/>
			
				<ellipse transform="matrix(0.7837 -0.6212 0.6212 0.7837 -166.8531 584.2538)" class="st1" cx="755.4" cy="531.7" rx="2.7" ry="3.4"/>
			
				<ellipse transform="matrix(0.7837 -0.6212 0.6212 0.7837 -165.414 577.5532)" class="st1" cx="746.5" cy="526.3" rx="1.6" ry="2"/>
		</g>
		<g>
			
				<ellipse transform="matrix(0.5776 -0.8163 0.8163 0.5776 -153.2886 746.7264)" class="st1" cx="644.9" cy="521.5" rx="8.3" ry="6.7"/>
			
				<ellipse transform="matrix(0.5776 -0.8163 0.8163 0.5776 -141.8469 754.5272)" class="st1" cx="658.2" cy="514.3" rx="5.3" ry="4.3"/>
			
				<ellipse transform="matrix(0.5776 -0.8163 0.8163 0.5776 -130.14 748.7573)" class="st1" cx="658.5" cy="500.1" rx="7.3" ry="5.9"/>
			
				<ellipse transform="matrix(0.5776 -0.8163 0.8163 0.5776 -139.0197 737.5506)" class="st1" cx="643.2" cy="503.1" rx="5.9" ry="4.8"/>
			
				<ellipse transform="matrix(0.5776 -0.8163 0.8163 0.5776 -140.5924 745.5151)" class="st1" cx="650.1" cy="508.6" rx="2" ry="1.6"/>
			
				<ellipse transform="matrix(0.5776 -0.8163 0.8163 0.5776 -152.6255 755.4545)" class="st1" cx="653.7" cy="525.2" rx="2" ry="1.6"/>
			
				<ellipse transform="matrix(0.5776 -0.8163 0.8163 0.5776 -151.8377 736.3035)" class="st1" cx="635.6" cy="514.9" rx="2" ry="1.6"/>
			
				<ellipse transform="matrix(0.5776 -0.8163 0.8163 0.5776 -180.7487 738.4023)" class="st1" cx="623.2" cy="543.9" rx="2" ry="1.6"/>
			
				<ellipse transform="matrix(0.5776 -0.8163 0.8163 0.5776 -127.579 737.5889)" class="st1" cx="649" cy="492.1" rx="2.8" ry="2.3"/>
			
				<ellipse transform="matrix(0.5776 -0.8163 0.8163 0.5776 -167.5305 747.9377)" class="st1" cx="639" cy="535.9" rx="2.8" ry="2.3"/>
			
				<ellipse transform="matrix(0.5776 -0.8163 0.8163 0.5776 -111.0993 747.5292)" class="st1" cx="666.8" cy="481.1" rx="2.8" ry="2.3"/>
			
				<ellipse transform="matrix(0.5776 -0.8163 0.8163 0.5776 -166.3341 739.343)" class="st1" cx="631.3" cy="530.4" rx="2.8" ry="2.3"/>
			
				<ellipse transform="matrix(0.5776 -0.8163 0.8163 0.5776 -121.2927 756.4656)" class="st1" cx="670.3" cy="495.4" rx="3.4" ry="2.7"/>
			
				<ellipse transform="matrix(0.5776 -0.8163 0.8163 0.5776 -130.6475 758.5139)" class="st1" cx="667.6" cy="505.5" rx="2" ry="1.6"/>
		</g>
		<path class="st1" d="M731.8,501c0,0,22.5,18,32.8,32.2s5,44.5,5,44.5s-2.7-25.7-13.2-37.8s-28-22.4-28-22.4L731.8,501z"/>
		<path class="st3" d="M882.9,626.3c-3.1-2.2-8.7,0.2-12.5,5.4c-3.8,5.2-4.5,11.3-1.4,13.5s8.7-0.2,12.5-5.4
			C885.3,634.6,885.9,628.5,882.9,626.3z M871.3,644.1c-2.2-1.6-1.8-6,1-9.8c2.8-3.8,6.8-5.5,9-3.9c2.2,1.6,1.8,6-1,9.8
			C877.5,644,873.5,645.7,871.3,644.1z"/>
		<path class="st3" d="M859.5,623.7c-2.4-1.3-5.6-0.4-8.4,2c1.7,0.6,3.3,1.3,5,2c0.9-0.1,1.7,0,2.5,0.4c0.5,0.3,1,0.7,1.3,1.2
			c0.9,0.4,1.7,0.8,2.6,1.2C862.6,627.4,861.6,624.8,859.5,623.7z"/>
		<path class="st1" d="M566.5,227.7c7.8,21.1,25.9,30,38.2,39.8c16,12.7,22,52,22,52l-14.5,35.4C596,323.7,563.4,280.2,566.5,227.7z
			"/>
		<path class="st3" d="M592.7,528.8c-9.6,15.4-14.1,40.2-16.1,55c-3.9-15-9.4-32.2-3.1-55.7c8.4-31.4,23.7-47.3,28.8-52
			c0.6-0.5,1.1-1,1.7-1.5c16.6-13.8,46-53.8,46-53.8s-0.3,27.3-7.3,43.7C635.7,480.8,607,505.8,592.7,528.8z"/>
		<path class="st3" d="M578.9,608.8c0.7,25.6-25.7,30.4-48.3,43.3c-13.3,7.6-24.9,28-32.3,43.4c-0.2-2.1-0.4-4.3-0.4-6.6
			C495.9,622.3,575,627.8,578.9,608.8z"/>
		<path class="st3" d="M399.7,405.5c7.8-43.3,58.3-58.8,88.3-51.3c34.7,8.7,78.7,71.3,123.3,43.3c3.9-2.4,6.5-5.4,8-8.9l0,0
			c0,0-7.4,30.2-48.7,19.6c-41.3-10.7-68.5-47.1-108.3-43.3C424.8,368.4,406.1,391.6,399.7,405.5z"/>
		<circle class="st3" cx="635.8" cy="342.1" r="44.4"/>
		<path class="st2" d="M678.6,353.7c-5.1,18.9-22.3,32.8-42.8,32.8c-24,0-43.6-19.1-44.3-42.9c5.1-18.9,22.3-32.8,42.8-32.8
			C658.3,310.8,677.9,329.9,678.6,353.7z"/>
		<path class="st4" d="M670.3,354.8c0,0-13.3-11-41.2-13.8c-27.8-2.8-35.2,1.8-35.2,1.8s4.3,31.2,31.3,35.2S670.3,354.8,670.3,354.8
			z"/>
		<path class="st5" d="M625.7,358.2c3.6,0,6.6-2.9,6.6-6.6c0-2.4-1.3-4.5-3.2-5.7c0.5-0.1,0.9-0.1,1.4-0.1c6.1,0,11.1,5,11.1,11.1
			s-5,11.1-11.1,11.1s-11.1-5-11.1-11.1c0-0.9,0.1-1.8,0.3-2.6C620.7,356.6,623,358.2,625.7,358.2z"/>
		<path class="st3" d="M544.8,724.2c-2.5-3-6.3-4.1-8.5-2.3s-1.8,5.7,0.8,8.7c2.5,3,6.3,4.1,8.5,2.3S547.3,727.3,544.8,724.2z
			 M544,724.1c1.8,2.2,2.1,5,0.6,6.3s-4.3,0.5-6.1-1.7c-1.8-2.2-2.1-5-0.6-6.3C539.4,721.2,542.2,721.9,544,724.1z"/>
		<path class="st3" d="M535.1,729c-3.1-3.7-7.4-5.1-9.7-3.2c-2.3,1.9-1.6,6.5,1.5,10.2s7.4,5.1,9.7,3.2
			C538.9,737.3,538.2,732.7,535.1,729z M534.2,728.8c2.2,2.7,2.7,6,1.1,7.3c-1.7,1.4-4.8,0.3-7-2.3c-2.2-2.7-2.7-6-1.1-7.3
			C528.8,725.1,532,726.1,534.2,728.8z"/>
		<path class="st3" d="M536.5,711.5c-1.2-3.8-4.3-6.2-7-5.3c-2.6,0.8-3.8,4.6-2.6,8.4s4.3,6.2,7,5.3S537.7,715.3,536.5,711.5z
			 M535.8,711.1c0.9,2.7,0,5.4-1.9,6.1c-1.9,0.6-4.2-1.1-5-3.9c-0.9-2.7,0-5.4,1.9-6.1C532.7,706.6,534.9,708.4,535.8,711.1z"/>
		<path class="st3" d="M525.7,712.3c-1.5-4.6-5-7.6-7.8-6.7c-2.8,0.9-3.9,5.4-2.5,10c1.5,4.6,5,7.6,7.8,6.7S527.2,716.9,525.7,712.3
			z M525,711.8c1.1,3.3,0.3,6.5-1.8,7.2c-2.1,0.7-4.6-1.5-5.6-4.8c-1.1-3.3-0.3-6.5,1.8-7.2C521.4,706.3,523.9,708.4,525,711.8z"/>
		<path class="st3" d="M534.3,697c1.5-3.7,1.4-7.2-0.2-7.9s-4.2,1.8-5.7,5.4c-1.5,3.7-1.4,7.2,0.2,7.9S532.8,700.7,534.3,697z
			 M534.2,696.3c-1.1,2.7-2.9,4.4-4.1,3.9c-1.2-0.5-1.3-3-0.2-5.7c1.1-2.7,2.9-4.4,4.1-3.9C535.2,691.1,535.3,693.7,534.2,696.3z"/>
		<path class="st3" d="M527.7,693.6c1.8-4.5,1.1-9-1.7-10.1c-2.8-1.1-6.5,1.6-8.3,6s-1.1,9,1.7,10.1S525.8,698,527.7,693.6z
			 M527.4,692.7c-1.3,3.2-4,5.2-6,4.4s-2.5-4.1-1.2-7.3s4-5.2,6-4.4C528.2,686.2,528.7,689.4,527.4,692.7z"/>
		<path class="st3" d="M554.8,733.8c-2.6-1.6-5.7-1.4-6.8,0.4s0.1,4.6,2.8,6.2c2.6,1.6,5.7,1.4,6.8-0.4S557.5,735.4,554.8,733.8z
			 M554.2,733.9c1.9,1.1,2.8,3.2,2,4.5c-0.8,1.3-3,1.5-4.9,0.3c-1.9-1.1-2.8-3.2-2-4.5C550.1,732.9,552.3,732.8,554.2,733.9z"/>
		<path class="st3" d="M549,739.7c-3.2-1.9-6.7-1.9-7.9,0.1c-1.2,2,0.4,5.1,3.6,7.1s6.7,1.9,7.9-0.1
			C553.8,744.8,552.2,741.6,549,739.7z M548.2,739.8c2.3,1.4,3.5,3.7,2.6,5.1c-0.9,1.4-3.4,1.5-5.7,0.1c-2.3-1.4-3.5-3.7-2.6-5.1
			C543.4,738.4,545.9,738.4,548.2,739.8z"/>
		<path class="st3" d="M564.9,736.4c-2.7-0.3-5.1,1-5.3,2.9c-0.2,1.9,1.9,3.7,4.6,3.9c2.7,0.3,5.1-1,5.3-2.9
			S567.6,736.7,564.9,736.4z M564.4,736.8c2,0.2,3.5,1.5,3.3,2.9s-1.9,2.3-3.8,2.1c-2-0.2-3.5-1.5-3.3-2.9
			C560.7,737.5,562.5,736.6,564.4,736.8z"/>
		<path class="st3" d="M562.4,743.5c-3.3-0.3-6.2,1.1-6.4,3.1s2.3,4,5.6,4.3s6.2-1.1,6.4-3.1S565.7,743.8,562.4,743.5z M561.9,743.8
			c2.4,0.2,4.2,1.6,4.1,3.1c-0.1,1.5-2.2,2.5-4.6,2.2c-2.4-0.2-4.2-1.6-4.1-3.1C557.4,744.6,559.5,743.6,561.9,743.8z"/>
		<path class="st3" d="M480.3,463.5c-3.9-0.6-7.4,1.2-7.8,3.9c-0.4,2.7,2.5,5.4,6.4,6c3.9,0.6,7.4-1.2,7.8-3.9
			C487.1,466.7,484.2,464.1,480.3,463.5z M479.6,463.9c2.8,0.4,4.9,2.3,4.6,4.3c-0.3,2-2.8,3.3-5.7,2.9c-2.8-0.4-4.9-2.3-4.6-4.3
			C474.2,464.8,476.8,463.5,479.6,463.9z"/>
		<path class="st3" d="M476.3,473.5c-4.8-0.7-9,1.2-9.4,4.1c-0.4,2.9,3.1,5.9,7.9,6.6c4.8,0.7,9-1.2,9.4-4.1
			C484.6,477.1,481.1,474.2,476.3,473.5z M475.5,474c3.5,0.5,6,2.6,5.7,4.8c-0.3,2.1-3.4,3.5-6.8,3c-3.5-0.5-6-2.6-5.7-4.8
			C469,474.8,472,473.5,475.5,474z"/>
		<path class="st3" d="M461.6,462.2c-3.9-0.6-7.4,1.2-7.8,3.9c-0.4,2.7,2.5,5.4,6.4,6c3.9,0.6,7.4-1.2,7.8-3.9
			C468.4,465.4,465.6,462.8,461.6,462.2z M461,462.6c2.8,0.4,4.9,2.3,4.6,4.3c-0.3,2-2.8,3.3-5.7,2.9c-2.8-0.4-4.9-2.3-4.6-4.3
			C455.6,463.5,458.1,462.2,461,462.6z"/>
		<path class="st3" d="M457.6,472.2c-4.8-0.7-9,1.2-9.4,4.1c-0.4,2.9,3.1,5.9,7.9,6.6c4.8,0.7,9-1.2,9.4-4.1
			C465.9,475.8,462.4,472.9,457.6,472.2z M456.8,472.7c3.5,0.5,6,2.6,5.7,4.8c-0.3,2.1-3.4,3.5-6.8,3c-3.5-0.5-6-2.6-5.7-4.8
			C450.3,473.5,453.4,472.2,456.8,472.7z"/>
		<path class="st3" d="M447,457.3c-3.4-2-7.1-2.1-8.3-0.1c-1.1,1.9,0.7,5.1,4.2,7.1c3.4,2,7.1,2.1,8.3,0.1
			C452.3,462.5,450.4,459.3,447,457.3z M446.2,457.3c2.5,1.4,3.8,3.8,3,5.2c-0.8,1.4-3.5,1.4-6-0.1s-3.8-3.8-3-5.2
			C441.1,455.9,443.8,455.9,446.2,457.3z"/>
		<path class="st3" d="M439.7,464.3c-4.2-2.4-8.8-2.3-10.3,0.3c-1.5,2.6,0.7,6.6,4.8,9.1c4.2,2.4,8.8,2.3,10.3-0.3
			C446,470.8,443.8,466.7,439.7,464.3z M438.7,464.4c3,1.8,4.6,4.7,3.5,6.6c-1.1,1.9-4.4,1.9-7.4,0.2s-4.6-4.7-3.5-6.6
			C432.4,462.7,435.7,462.7,438.7,464.4z"/>
		<path class="st3" d="M435.6,448.4c-1.9-3.5-4.8-5.6-6.3-4.7c-1.5,0.9-1.2,4.4,0.7,7.8s4.8,5.6,6.3,4.7S437.5,451.8,435.6,448.4z
			 M435,448c1.4,2.5,1.6,5,0.5,5.7c-1.1,0.6-3.2-0.9-4.6-3.4c-1.4-2.5-1.6-5-0.5-5.7C431.5,444,433.6,445.5,435,448z"/>
		<path class="st3" d="M428.7,451.4c-2.4-4.2-6.4-6.4-9-5c-2.6,1.5-2.8,6-0.5,10.2s6.4,6.4,9,5C430.9,460.2,431.1,455.6,428.7,451.4
			z M427.9,451c1.7,3,1.6,6.4-0.3,7.4c-1.9,1.1-4.8-0.6-6.5-3.6c-1.7-3-1.6-6.4,0.3-7.4C423.3,446.4,426.2,448,427.9,451z"/>
		<path class="st3" d="M497.1,464.9c-3.7-0.2-6.8,1.6-7,4.1c-0.1,2.4,2.8,4.5,6.5,4.7c3.7,0.2,6.8-1.6,7-4.1
			C503.7,467.2,500.8,465.1,497.1,464.9z M496.5,465.3c2.7,0.1,4.8,1.7,4.7,3.4c-0.1,1.8-2.3,3.1-5,2.9c-2.7-0.1-4.8-1.7-4.7-3.4
			C491.5,466.5,493.8,465.2,496.5,465.3z"/>
		<path class="st3" d="M494.2,473.9c-4.5-0.2-8.3,1.7-8.4,4.3c-0.1,2.6,3.4,4.8,8,5.1c4.5,0.2,8.3-1.7,8.4-4.3
			C502.3,476.4,498.8,474.1,494.2,473.9z M493.5,474.3c3.3,0.2,5.9,1.8,5.8,3.7c-0.1,1.9-2.8,3.2-6.1,3.1s-5.9-1.8-5.8-3.7
			C487.5,475.6,490.3,474.2,493.5,474.3z"/>
		<path class="st3" d="M515.1,466.9c-3.2-0.2-5.8,1.4-5.9,3.5c-0.1,2.1,2.4,3.9,5.6,4c3.2,0.2,5.8-1.4,5.9-3.5
			S518.2,467.1,515.1,466.9z M514.6,467.3c2.3,0.1,4.1,1.4,4,2.9c-0.1,1.5-2,2.6-4.3,2.5c-2.3-0.1-4.1-1.4-4-2.9
			C510.3,468.3,512.3,467.2,514.6,467.3z"/>
		<path class="st3" d="M512.6,474.6c-3.9-0.2-7.1,1.4-7.2,3.6c-0.1,2.2,2.9,4.1,6.8,4.3s7.1-1.4,7.2-3.6
			C519.5,476.7,516.5,474.8,512.6,474.6z M512,475c2.8,0.1,5,1.5,4.9,3.1c-0.1,1.6-2.4,2.8-5.2,2.6c-2.8-0.1-5-1.5-4.9-3.1
			C506.9,476,509.3,474.8,512,475z"/>
		<path class="st3" d="M529.5,473.1c-2.4-0.8-4.7-0.3-5.2,1.2c-0.5,1.5,0.9,3.4,3.3,4.3s4.7,0.3,5.2-1.2
			C533.3,475.8,531.9,473.9,529.5,473.1z M529,473.2c1.7,0.6,2.8,2,2.4,3.1c-0.4,1.1-2.1,1.5-3.8,0.9c-1.7-0.6-2.8-2-2.4-3.1
			C525.6,473,527.3,472.6,529,473.2z"/>
		<path class="st3" d="M528.7,480c-2.9-1-5.6-0.5-6.2,1.1c-0.6,1.6,1.3,3.8,4.1,4.8c2.9,1,5.6,0.5,6.2-1.1
			C533.4,483.2,531.5,481.1,528.7,480z M528.1,480.2c2.1,0.7,3.4,2.3,3,3.5s-2.4,1.5-4.5,0.8c-2.1-0.7-3.4-2.3-3-3.5
			C524,479.8,526.1,479.5,528.1,480.2z"/>
		<path class="st2" d="M700,403c0,0,13.3,5.2,17.8,17.8s15.1,40.4,19.3,54.5s-19.6,90-14.6,137s49,78.7,56.3,117.9
			c10.8,58.6-41.5,112.7-89,85.7s-12.5-62.9,4-61.7c0,0-19,29.7-2,37.2s45.3-15.3,45.3-33.7c0-38.5-51.6-65.7-69.3-116.3
			c-15.5-44.1-13.6-122.7-7.2-155C667.1,454.1,684.2,406,700,403z"/>
		<path class="st3" d="M711.6,798.9c0.8,1.9,3.6,2.4,6.3,1.3c2.7-1.1,4.2-3.6,3.4-5.4s-3.6-2.4-6.3-1.3
			C712.4,794.6,710.8,797,711.6,798.9z M720.1,794.6c0.6,1.3-0.5,3.1-2.4,3.9c-1.9,0.8-4,0.4-4.5-0.9c-0.6-1.3,0.5-3.1,2.4-3.9
			C717.5,792.8,719.5,793.2,720.1,794.6z"/>
		<path class="st3" d="M715.5,805.9c0.9,2,4.2,2.5,7.4,1.1c3.2-1.4,5.2-4.1,4.3-6.1s-4.2-2.5-7.4-1.1
			C716.5,801.1,714.6,803.9,715.5,805.9z M725.8,800.7c0.6,1.4-0.8,3.4-3.1,4.4c-2.3,1-4.7,0.7-5.4-0.8c-0.6-1.4,0.8-3.4,3.1-4.4
			C722.8,798.9,725.2,799.3,725.8,800.7z"/>
		<path class="st3" d="M723.6,794.2c1.4,1.4,4.3,0.9,6.3-1.2c2-2.1,2.5-4.9,1.1-6.3s-4.3-0.9-6.3,1.2
			C722.6,790,722.1,792.8,723.6,794.2z M729.8,787c1,1,0.7,3.1-0.8,4.6c-1.5,1.5-3.5,1.9-4.6,0.9c-1-1-0.7-3.1,0.8-4.6
			C726.7,786.4,728.7,786,729.8,787z"/>
		<path class="st3" d="M729.7,799.3c1.6,1.5,4.8,0.7,7.3-1.8c2.5-2.5,3.2-5.8,1.7-7.3s-4.8-0.7-7.3,1.8S728.2,797.7,729.7,799.3z
			 M737.3,790.6c1.1,1.1,0.6,3.5-1.2,5.3c-1.8,1.8-4.1,2.4-5.3,1.3c-1.1-1.1-0.6-3.5,1.2-5.3C733.9,790,736.2,789.5,737.3,790.6z"/>
		<path class="st3" d="M732.8,784.6c1.3,0.1,2.5-2.2,2.8-5.1s-0.6-5.3-1.9-5.4c-1.3-0.1-2.5,2.2-2.8,5.1
			C730.6,782.1,731.5,784.5,732.8,784.6z M733.1,775.1c0.9,0.1,1.6,1.8,1.4,3.9s-1.1,3.7-2,3.7c-0.9-0.1-1.6-1.8-1.4-3.9
			C731.3,776.6,732.2,775,733.1,775.1z"/>
		<path class="st3" d="M739.8,785.8c2.2,0.2,4.2-2.5,4.4-6c0.3-3.5-1.3-6.5-3.4-6.7c-2.2-0.2-4.2,2.5-4.4,6
			C736,782.6,737.6,785.6,739.8,785.8z M740,774.2c1.6,0.1,2.7,2.3,2.5,4.8c-0.2,2.5-1.6,4.5-3.2,4.4c-1.6-0.1-2.7-2.3-2.5-4.8
			C737,776,738.4,774.1,740,774.2z"/>
		<path class="st3" d="M701.5,799.5c0.1,1.6,2,2.7,4.3,2.5c2.2-0.2,4-1.6,3.8-3.1c-0.1-1.6-2-2.7-4.3-2.5S701.4,797.9,701.5,799.5z
			 M708.8,798.5c0.1,1.1-1.2,2.1-2.8,2.3s-3-0.7-3.1-1.8c-0.1-1.1,1.2-2.1,2.8-2.3C707.3,796.5,708.7,797.3,708.8,798.5z"/>
		<path class="st3" d="M702.5,805.6c0.1,1.7,2.4,2.9,5.2,2.7c2.7-0.2,4.8-1.7,4.7-3.4c-0.1-1.7-2.4-2.9-5.2-2.7
			C704.5,802.4,702.4,803.9,702.5,805.6z M711.4,804.4c0.1,1.2-1.4,2.3-3.4,2.5c-2,0.1-3.6-0.7-3.7-1.9c-0.1-1.2,1.4-2.3,3.4-2.5
			S711.3,803.2,711.4,804.4z"/>
		<path class="st3" d="M693.6,795.8c-0.5,1.3,0.6,2.9,2.5,3.7c1.9,0.7,3.8,0.2,4.3-1.1s-0.6-2.9-2.5-3.7
			C696,794.1,694.1,794.5,693.6,795.8z M699.9,797.8c-0.4,0.9-1.8,1.3-3.1,0.8s-2.2-1.7-1.8-2.7s1.8-1.3,3.1-0.8
			C699.4,795.7,700.2,796.9,699.9,797.8z"/>
		<path class="st3" d="M692.1,801.2c-0.5,1.4,0.9,3.3,3.1,4.1c2.3,0.9,4.6,0.4,5.1-1c0.5-1.4-0.9-3.3-3.1-4.1
			C694.9,799.3,692.6,799.7,692.1,801.2z M699.7,803.6c-0.4,1-2,1.3-3.7,0.7c-1.6-0.6-2.7-2-2.3-3c0.4-1,2-1.3,3.7-0.7
			C699.1,801.2,700.1,802.6,699.7,803.6z"/>
		<path class="st3" d="M760.5,690.2C760.5,690.2,760.5,690.2,760.5,690.2c-53-63.4-55.6-105.2-58-132.1c-2.3-27,14.3-92,7.1-104
			c-7.2-11.9-12.6-10.6-12.6-10.6c-16.8-1-25.2,73.5-23.9,121.5s31.3,90.5,66.4,126.5c24,24.6,35.7,47.3,40.6,59.2
			c0.4-6.7,0-13.5-1.3-20.5C776.2,716.3,769,703.3,760.5,690.2z"/>
		<path class="st1" d="M833.5,227.7c-7.8,21.1-25.9,30-38.2,39.8c-16,12.7-22,52-22,52l14.5,35.4C804,323.7,836.6,280.2,833.5,227.7
			z"/>
		<circle class="st3" cx="764.2" cy="342.1" r="44.4"/>
		<path class="st2" d="M721.4,353.7c5.1,18.9,22.3,32.8,42.8,32.8c24,0,43.6-19.1,44.3-42.9c-5.1-18.9-22.3-32.8-42.8-32.8
			C741.7,310.8,722.1,329.9,721.4,353.7z"/>
		<path class="st4" d="M729.7,354.8c0,0,13.3-11,41.2-13.8s35.2,1.8,35.2,1.8s-4.3,31.2-31.3,35.2S729.7,354.8,729.7,354.8z"/>
		<path class="st5" d="M774.3,358.2c-3.6,0-6.6-2.9-6.6-6.6c0-2.4,1.3-4.5,3.2-5.7c-0.5-0.1-0.9-0.1-1.4-0.1
			c-6.1,0-11.1,5-11.1,11.1s5,11.1,11.1,11.1s11.1-5,11.1-11.1c0-0.9-0.1-1.8-0.3-2.6C779.3,356.6,777,358.2,774.3,358.2z"/>
		<path class="st1" d="M496.9,410.4c0,0,42.1,47.6,67.6,54.4c25.6,6.9,46.1,3.6,46.1,3.6l8.1-8.6c0,0-34.9,5.5-57.6-3.4
			S496.9,410.4,496.9,410.4z"/>
		<path class="st3" d="M807.3,528.8c9.6,15.4,14.1,40.2,16.1,55c3.9-15,9.4-32.2,3.1-55.7c-8.4-31.4-23.7-47.3-28.8-52
			c-0.6-0.5-1.1-1-1.7-1.5c-16.6-13.8-46-53.8-46-53.8s0.3,27.3,7.3,43.7C764.3,480.8,793,505.8,807.3,528.8z"/>
		<path class="st3" d="M1000.3,405.5c-7.8-43.3-58.3-58.8-88.3-51.3c-34.7,8.7-78.7,71.3-123.3,43.3c-3.9-2.4-6.5-5.4-8-8.9l0,0
			c0,0,7.4,30.2,48.7,19.6c41.3-10.7,68.5-47.1,108.3-43.3C975.2,368.4,993.9,391.6,1000.3,405.5z"/>
		<path class="st3" d="M821.1,608.8c-0.7,25.6,25.7,30.4,48.3,43.3c13.3,7.6,24.9,28,32.3,43.4c0.2-2.1,0.4-4.3,0.4-6.6
			C904.1,622.3,825,627.8,821.1,608.8z"/>
		<path class="st3" d="M913.3,469.5c0.4,2.7,3.9,4.5,7.8,3.9c3.9-0.6,6.8-3.2,6.4-6c-0.4-2.7-3.9-4.5-7.8-3.9
			C915.8,464.1,912.9,466.7,913.3,469.5z M926,466.8c0.3,2-1.8,3.9-4.6,4.3s-5.4-0.9-5.7-2.9c-0.3-2,1.8-3.9,4.6-4.3
			C923.2,463.5,925.8,464.8,926,466.8z"/>
		<path class="st3" d="M915.8,480.1c0.4,2.9,4.6,4.8,9.4,4.1s8.3-3.6,7.9-6.6c-0.4-2.9-4.6-4.8-9.4-4.1S915.4,477.1,915.8,480.1z
			 M931.3,476.9c0.3,2.1-2.2,4.3-5.7,4.8c-3.5,0.5-6.5-0.8-6.8-3c-0.3-2.1,2.2-4.3,5.7-4.8C928,473.5,931,474.8,931.3,476.9z"/>
		<path class="st3" d="M932,468.2c0.4,2.7,3.9,4.5,7.8,3.9c3.9-0.6,6.8-3.2,6.4-6c-0.4-2.7-3.9-4.5-7.8-3.9
			C934.4,462.8,931.6,465.4,932,468.2z M944.7,465.5c0.3,2-1.8,3.9-4.6,4.3c-2.8,0.4-5.4-0.9-5.7-2.9c-0.3-2,1.8-3.9,4.6-4.3
			S944.4,463.5,944.7,465.5z"/>
		<path class="st3" d="M934.5,478.8c0.4,2.9,4.6,4.8,9.4,4.1c4.8-0.7,8.3-3.6,7.9-6.6c-0.4-2.9-4.6-4.8-9.4-4.1
			C937.6,472.9,934.1,475.8,934.5,478.8z M950,475.6c0.3,2.1-2.2,4.3-5.7,4.8s-6.5-0.8-6.8-3c-0.3-2.1,2.2-4.3,5.7-4.8
			S949.7,473.5,950,475.6z"/>
		<path class="st3" d="M948.9,464.4c1.1,1.9,4.8,1.9,8.3-0.1s5.3-5.2,4.2-7.1c-1.1-1.9-4.8-1.9-8.3,0.1S947.7,462.5,948.9,464.4z
			 M959.7,457.3c0.8,1.4-0.5,3.7-3,5.2c-2.5,1.4-5.2,1.5-6,0.1c-0.8-1.4,0.5-3.7,3-5.2S958.9,455.9,959.7,457.3z"/>
		<path class="st3" d="M955.5,473.3c1.5,2.6,6.1,2.7,10.3,0.3c4.2-2.4,6.3-6.5,4.8-9.1c-1.5-2.6-6.1-2.7-10.3-0.3
			S954,470.8,955.5,473.3z M968.7,464.6c1.1,1.9-0.5,4.8-3.5,6.6s-6.3,1.7-7.4-0.2c-1.1-1.9,0.5-4.8,3.5-6.6
			C964.3,462.7,967.6,462.7,968.7,464.6z"/>
		<path class="st3" d="M963.7,456.2c1.5,0.9,4.4-1.2,6.3-4.7c1.9-3.5,2.3-7,0.7-7.8c-1.5-0.9-4.4,1.2-6.3,4.7
			C962.5,451.8,962.2,455.3,963.7,456.2z M969.6,444.6c1.1,0.6,0.9,3.2-0.5,5.7c-1.4,2.5-3.4,4-4.6,3.4c-1.1-0.6-0.9-3.2,0.5-5.7
			C966.4,445.5,968.5,444,969.6,444.6z"/>
		<path class="st3" d="M971.7,461.7c2.6,1.5,6.6-0.8,9-5c2.4-4.2,2.1-8.8-0.5-10.2c-2.6-1.5-6.6,0.8-9,5
			C968.9,455.6,969.1,460.2,971.7,461.7z M978.6,447.4c1.9,1.1,2,4.4,0.3,7.4c-1.7,3-4.6,4.7-6.5,3.6c-1.9-1.1-2-4.4-0.3-7.4
			C973.8,448,976.7,446.4,978.6,447.4z"/>
		<path class="st3" d="M896.4,469.6c0.1,2.4,3.2,4.2,7,4.1c3.7-0.2,6.7-2.3,6.5-4.7c-0.1-2.4-3.2-4.2-7-4.1S896.3,467.2,896.4,469.6
			z M908.5,468.2c0.1,1.8-2,3.3-4.7,3.4s-5-1.2-5-2.9s2-3.3,4.7-3.4C906.2,465.2,908.5,466.5,908.5,468.2z"/>
		<path class="st3" d="M897.8,479c0.1,2.6,3.9,4.5,8.4,4.3s8.1-2.5,8-5.1c-0.1-2.6-3.9-4.5-8.4-4.3S897.7,476.4,897.8,479z
			 M912.6,477.4c0.1,1.9-2.5,3.5-5.8,3.7c-3.3,0.2-6-1.2-6.1-3.1c-0.1-1.9,2.5-3.5,5.8-3.7C909.7,474.2,912.5,475.6,912.6,477.4z"/>
		<path class="st3" d="M879.4,470.9c0.1,2.1,2.8,3.6,5.9,3.5c3.2-0.2,5.7-2,5.6-4c-0.1-2.1-2.8-3.6-5.9-3.5
			C881.8,467.1,879.3,468.9,879.4,470.9z M889.7,469.8c0.1,1.5-1.7,2.8-4,2.9c-2.3,0.1-4.2-1-4.3-2.5c-0.1-1.5,1.7-2.8,4-2.9
			C887.7,467.2,889.7,468.3,889.7,469.8z"/>
		<path class="st3" d="M880.6,478.9c0.1,2.2,3.3,3.8,7.2,3.6c3.9-0.2,6.9-2.1,6.8-4.3c-0.1-2.2-3.3-3.8-7.2-3.6
			C883.5,474.8,880.5,476.7,880.6,478.9z M893.1,477.6c0.1,1.6-2.1,3-4.9,3.1c-2.8,0.1-5.1-1-5.2-2.6s2.1-3,4.9-3.1
			C890.7,474.8,893.1,476,893.1,477.6z"/>
		<path class="st3" d="M867.2,477.4c0.5,1.5,2.9,2.1,5.2,1.2s3.8-2.8,3.3-4.3c-0.5-1.5-2.9-2.1-5.2-1.2
			C868.1,473.9,866.7,475.8,867.2,477.4z M874.8,474.1c0.4,1.1-0.7,2.5-2.4,3.1c-1.7,0.6-3.4,0.2-3.8-0.9c-0.4-1.1,0.7-2.5,2.4-3.1
			C872.7,472.6,874.4,473,874.8,474.1z"/>
		<path class="st3" d="M867.2,484.8c0.6,1.6,3.4,2.1,6.2,1.1c2.9-1,4.7-3.2,4.1-4.8s-3.4-2.1-6.2-1.1
			C868.5,481.1,866.6,483.2,867.2,484.8z M876.4,481c0.4,1.2-0.9,2.7-3,3.5c-2.1,0.7-4.1,0.4-4.5-0.8s0.9-2.7,3-3.5
			C873.9,479.5,876,479.8,876.4,481z"/>
		<path class="st1" d="M781.5,460c0,0,31.4,3.8,56-8.5c24.7-12.3,53.4-38.2,53.4-38.2s-22.7,31-44.2,43.8s-55,13.5-55,13.5
			L781.5,460z"/>
		<path class="st3" d="M854.4,733c2.1,1.8,5.9,0.7,8.5-2.3c2.5-3,2.9-7,0.8-8.7c-2.1-1.8-5.9-0.7-8.5,2.3
			C852.7,727.3,852.3,731.2,854.4,733z M862.1,722.5c1.5,1.3,1.3,4.1-0.6,6.3c-1.8,2.2-4.6,3-6.1,1.7c-1.5-1.3-1.3-4.1,0.6-6.3
			C857.8,721.9,860.6,721.2,862.1,722.5z"/>
		<path class="st3" d="M863.4,739.2c2.3,1.9,6.6,0.5,9.7-3.2c3.1-3.7,3.7-8.2,1.5-10.2c-2.3-1.9-6.6-0.5-9.7,3.2
			C861.8,732.7,861.1,737.3,863.4,739.2z M872.8,726.5c1.7,1.4,1.2,4.7-1.1,7.3c-2.2,2.7-5.4,3.7-7,2.3c-1.7-1.4-1.2-4.7,1.1-7.3
			C868,726.1,871.2,725.1,872.8,726.5z"/>
		<path class="st3" d="M866.1,719.9c2.6,0.8,5.8-1.5,7-5.3s0.1-7.5-2.6-8.4s-5.8,1.5-7,5.3C862.3,715.3,863.5,719.1,866.1,719.9z
			 M869.2,707.3c1.9,0.6,2.7,3.3,1.9,6.1c-0.9,2.7-3.1,4.5-5,3.9c-1.9-0.6-2.7-3.3-1.9-6.1C865.1,708.4,867.3,706.6,869.2,707.3z"/>
		<path class="st3" d="M876.7,722.2c2.8,0.9,6.3-2.1,7.8-6.7c1.5-4.6,0.4-9-2.5-10c-2.8-0.9-6.3,2.1-7.8,6.7
			C872.8,716.9,873.9,721.3,876.7,722.2z M880.7,706.9c2.1,0.7,2.9,3.9,1.8,7.2c-1.1,3.3-3.6,5.5-5.6,4.8c-2.1-0.7-2.9-3.9-1.8-7.2
			C876.1,708.4,878.6,706.3,880.7,706.9z"/>
		<path class="st3" d="M871.4,702.5c1.6-0.7,1.7-4.2,0.2-7.9c-1.5-3.7-4.1-6.1-5.7-5.4s-1.7,4.2-0.2,7.9
			C867.2,700.7,869.8,703.1,871.4,702.5z M865.9,690.6c1.2-0.5,3,1.3,4.1,3.9c1.1,2.7,1,5.2-0.2,5.7c-1.2,0.5-3-1.3-4.1-3.9
			S864.8,691.1,865.9,690.6z"/>
		<path class="st3" d="M880.6,699.6c2.8-1.1,3.5-5.7,1.7-10.1c-1.8-4.5-5.5-7.2-8.3-6c-2.8,1.1-3.5,5.7-1.7,10.1
			S877.9,700.7,880.6,699.6z M873.8,685.3c2-0.8,4.7,1.1,6,4.4c1.3,3.2,0.8,6.5-1.2,7.3c-2,0.8-4.7-1.1-6-4.4
			S871.8,686.2,873.8,685.3z"/>
		<path class="st3" d="M842.4,740c1.1,1.8,4.1,2,6.8,0.4c2.6-1.6,3.9-4.4,2.8-6.2c-1.1-1.8-4.1-2-6.8-0.4
			C842.5,735.4,841.3,738.2,842.4,740z M850.7,734.2c0.8,1.3-0.1,3.3-2,4.5c-1.9,1.1-4.1,1-4.9-0.3c-0.8-1.3,0.1-3.3,2-4.5
			C847.7,732.8,849.9,732.9,850.7,734.2z"/>
		<path class="st3" d="M847.4,746.8c1.2,2,4.7,2,7.9,0.1c3.2-1.9,4.8-5.1,3.6-7.1c-1.2-2-4.7-2-7.9-0.1
			C847.8,741.6,846.2,744.8,847.4,746.8z M857.5,739.9c0.9,1.4-0.3,3.7-2.6,5.1c-2.3,1.4-4.9,1.4-5.7-0.1c-0.9-1.4,0.3-3.7,2.6-5.1
			C854.1,738.4,856.6,738.4,857.5,739.9z"/>
		<path class="st3" d="M830.5,740.4c0.2,1.9,2.6,3.2,5.3,2.9c2.7-0.3,4.8-2,4.6-3.9c-0.2-1.9-2.6-3.2-5.3-2.9
			C832.4,736.7,830.3,738.5,830.5,740.4z M839.4,738.9c0.1,1.4-1.4,2.7-3.3,2.9c-2,0.2-3.7-0.8-3.8-2.1c-0.1-1.4,1.4-2.7,3.3-2.9
			C837.5,736.6,839.3,737.5,839.4,738.9z"/>
		<path class="st3" d="M832,747.8c0.2,2.1,3.1,3.4,6.4,3.1c3.3-0.3,5.8-2.3,5.6-4.3s-3.1-3.4-6.4-3.1
			C834.3,743.8,831.8,745.8,832,747.8z M842.8,746.1c0.1,1.5-1.7,2.9-4.1,3.1c-2.4,0.2-4.5-0.8-4.6-2.2s1.7-2.9,4.1-3.1
			C840.5,743.6,842.6,744.6,842.8,746.1z"/>
		<path class="st1" d="M773.1,632.2c0,0,11.5,14,37.3,21.3S867,676,867,676s-22.7-16.6-45.9-23.8C797.8,645,773.1,632.2,773.1,632.2
			z"/>
		<path class="st1" d="M805.5,746.4c0,0,7.9,13.4,21.9,14.1c14,0.8,34.7-8.4,34.7-8.4s-25.7,8-34.3,6.3S805.5,746.4,805.5,746.4z"/>
		<path class="st1" d="M648.8,534c0,0-14.5,17-15.3,30.8s5.9,44.4-3.1,62s-39.1,25.4-39.1,25.4s31.7-13.4,35.6-31.4
			c3.9-18-2.4-45.9,1.9-62.7C633.1,541.2,648.8,534,648.8,534z"/>
		<g>
			
				<ellipse transform="matrix(0.2785 -0.9604 0.9604 0.2785 344.6931 952.7095)" class="st1" cx="806.5" cy="246.9" rx="9.8" ry="8.1"/>
			
				<ellipse transform="matrix(0.2785 -0.9604 0.9604 0.2785 366.2033 954.9987)" class="st1" cx="818.7" cy="233.8" rx="6.2" ry="5.2"/>
			
				<ellipse transform="matrix(0.2785 -0.9604 0.9604 0.2785 377.7964 938.1691)" class="st1" cx="813.3" cy="217.6" rx="8.7" ry="7.2"/>
			
				<ellipse transform="matrix(0.2785 -0.9604 0.9604 0.2785 357.2002 929.2089)" class="st1" cx="797.1" cy="226.9" rx="7" ry="5.8"/>
			
				<ellipse transform="matrix(0.2785 -0.9604 0.9604 0.2785 361.0881 941.4929)" class="st1" cx="807.2" cy="230.4" rx="2.4" ry="2"/>
			<ellipse transform="matrix(0.2785 -0.9604 0.9604 0.2785 352.208 964.3803)" class="st1" cx="818" cy="247.8" rx="2.4" ry="2"/>
			
				<ellipse transform="matrix(0.2785 -0.9604 0.9604 0.2785 338.7772 937.0895)" class="st1" cx="793.1" cy="243.1" rx="2.4" ry="2"/>
			
				<ellipse transform="matrix(0.2785 -0.9604 0.9604 0.2785 322.0647 933.8263)" class="st1" cx="782.6" cy="252.6" rx="2.4" ry="2"/>
			
				<ellipse transform="matrix(0.2785 -0.9604 0.9604 0.2785 372.8295 920.6768)" class="st1" cx="799.2" cy="212.2" rx="3.3" ry="2.7"/>
			
				<ellipse transform="matrix(0.2785 -0.9604 0.9604 0.2785 326.1907 965.0861)" class="st1" cx="805.4" cy="265.4" rx="3.3" ry="2.7"/>
			
				<ellipse transform="matrix(0.2785 -0.9604 0.9604 0.2785 402.8298 922.1679)" class="st1" cx="815.2" cy="193" rx="3.3" ry="2.7"/>
			
				<ellipse transform="matrix(0.2785 -0.9604 0.9604 0.2785 321.3123 952.2057)" class="st1" cx="794.4" cy="262.2" rx="3.3" ry="2.7"/>
			<ellipse transform="matrix(0.2785 -0.9604 0.9604 0.2785 395.6986 942.2762)" class="st1" cx="825" cy="207.8" rx="4" ry="3.3"/>
			<ellipse transform="matrix(0.2785 -0.9604 0.9604 0.2785 384.494 952.1522)" class="st1" cx="826" cy="220.2" rx="2.4" ry="2"/>
		</g>
		<g>
			
				<ellipse transform="matrix(0.7872 -0.6166 0.6166 0.7872 -18.1699 411.5062)" class="st1" cx="587.3" cy="232.1" rx="8.1" ry="9.8"/>
			
				<ellipse transform="matrix(0.7872 -0.6166 0.6166 0.7872 -28.3131 417.4307)" class="st1" cx="590.8" cy="249.7" rx="5.2" ry="6.2"/>
			
				<ellipse transform="matrix(0.7872 -0.6166 0.6166 0.7872 -27.964 428.5227)" class="st1" cx="607" cy="254.8" rx="7.2" ry="8.7"/>
			<ellipse transform="matrix(0.7872 -0.6166 0.6166 0.7872 -16.0727 425.8096)" class="st1" cx="609" cy="236.2" rx="5.8" ry="7"/>
			
				<ellipse transform="matrix(0.7872 -0.6166 0.6166 0.7872 -21.7278 421.6897)" class="st1" cx="600.2" cy="242.3" rx="2" ry="2.4"/>
			
				<ellipse transform="matrix(0.7872 -0.6166 0.6166 0.7872 -25.2137 408.8222)" class="st1" cx="579.8" cy="240.9" rx="2" ry="2.4"/>
			
				<ellipse transform="matrix(0.7872 -0.6166 0.6166 0.7872 -10.5538 416.4319)" class="st1" cx="598.2" cy="223.5" rx="2" ry="2.4"/>
			
				<ellipse transform="matrix(0.7872 -0.6166 0.6166 0.7872 -2.1949 412.4779)" class="st1" cx="596.7" cy="209.4" rx="2" ry="2.4"/>
			
				<ellipse transform="matrix(0.7872 -0.6166 0.6166 0.7872 -20.1601 434.5728)" class="st1" cx="619.7" cy="246.5" rx="2.7" ry="3.3"/>
			
				<ellipse transform="matrix(0.7872 -0.6166 0.6166 0.7872 -14.0639 400.1368)" class="st1" cx="572.8" cy="220.4" rx="2.7" ry="3.3"/>
			
				<ellipse transform="matrix(0.7872 -0.6166 0.6166 0.7872 -33.759 443.5798)" class="st1" cx="625.9" cy="270.7" rx="2.7" ry="3.3"/>
			
				<ellipse transform="matrix(0.7872 -0.6166 0.6166 0.7872 -7.7835 404.1986)" class="st1" cx="581.9" cy="213.4" rx="2.7" ry="3.3"/>
			<ellipse transform="matrix(0.7872 -0.6166 0.6166 0.7872 -37.1148 432.4907)" class="st1" cx="608.2" cy="270" rx="3.3" ry="4"/>
			
				<ellipse transform="matrix(0.7872 -0.6166 0.6166 0.7872 -35.395 424.5645)" class="st1" cx="597.6" cy="263.6" rx="2" ry="2.4"/>
		</g>
		<g>
			
				<ellipse transform="matrix(0.9945 -0.105 0.105 0.9945 -44.2049 63.8318)" class="st1" cx="584.3" cy="451.8" rx="8.3" ry="6.7"/>
			
				<ellipse transform="matrix(0.9945 -0.105 0.105 0.9945 -44.6765 65.3438)" class="st1" cx="598.4" cy="457.1" rx="5.3" ry="4.3"/>
			<ellipse transform="matrix(0.9945 -0.105 0.105 0.9945 -43.6546 66.432)" class="st1" cx="609.3" cy="447.9" rx="7.3" ry="5.9"/>
			
				<ellipse transform="matrix(0.9945 -0.105 0.105 0.9945 -42.7249 65.0866)" class="st1" cx="596.9" cy="438.4" rx="5.9" ry="4.8"/>
			<ellipse transform="matrix(0.9945 -0.105 0.105 0.9945 -43.6487 65.1804)" class="st1" cx="597.4" cy="447.2" rx="2" ry="1.6"/>
			<ellipse transform="matrix(0.9945 -0.105 0.105 0.9945 -45.1376 64.1956)" class="st1" cx="587.3" cy="460.9" rx="2" ry="1.6"/>
			<ellipse transform="matrix(0.9945 -0.105 0.105 0.9945 -43.0162 63.6428)" class="st1" cx="583.1" cy="440.5" rx="2" ry="1.6"/>
			<ellipse transform="matrix(0.9945 -0.105 0.105 0.9945 -44.2106 60.55)" class="st1" cx="553.1" cy="450.3" rx="2" ry="1.6"/>
			<ellipse transform="matrix(0.9945 -0.105 0.105 0.9945 -42.3473 66.3395)" class="st1" cx="609" cy="435.5" rx="2.8" ry="2.3"/>
			
				<ellipse transform="matrix(0.9945 -0.105 0.105 0.9945 -44.8126 62.3143)" class="st1" cx="569.6" cy="456.9" rx="2.8" ry="2.3"/>
			<ellipse transform="matrix(0.9945 -0.105 0.105 0.9945 -42.8849 68.474)" class="st1" cx="629" cy="441.6" rx="2.8" ry="2.3"/>
			
				<ellipse transform="matrix(0.9945 -0.105 0.105 0.9945 -43.8325 62.1583)" class="st1" cx="568.6" cy="447.5" rx="2.8" ry="2.3"/>
			
				<ellipse transform="matrix(0.9945 -0.105 0.105 0.9945 -44.2026 67.6571)" class="st1" cx="620.6" cy="453.7" rx="3.4" ry="2.7"/>
			<ellipse transform="matrix(0.9945 -0.105 0.105 0.9945 -44.7389 66.702)" class="st1" cx="611.3" cy="458.4" rx="2" ry="1.6"/>
		</g>
		<path class="st3" d="M787.3,164.8c8.5,1,21.1,4.3,31.4,11.5c-31-54.6-118.7-48.2-118.7-48.2s-92.5-6.8-121.1,52.7
			c-1.4,2.9-2.7,5.9-3.8,8.8c11.8-7.8,40.8-26.6,50.9-28.8c12.7-2.7,13.6,37.3,30,54.7c16.4,17.3,34.7,9.9,58.7-6.1
			c24-15.9,29.7-35.6,53.2-31.9C791.3,181.2,775.7,163.5,787.3,164.8z"/>
	</g>
	<g>
		<circle class="st6" cx="302.8" cy="584.9" r="15.1"/>
		<path class="st6" d="M301.8,574.3c8.3,0,15.1,6.8,15.1,15.1c0,0.3,0,0.6,0,0.9c0.6-1.7,1-3.5,1-5.4c0-8.3-6.8-15.1-15.1-15.1
			c-8,0-14.6,6.3-15.1,14.2C289.9,578.3,295.4,574.3,301.8,574.3z"/>
		<circle class="st7" cx="304.5" cy="578.5" r="7.2"/>
	</g>
	<g>
		<circle class="st6" cx="439.9" cy="657.1" r="3"/>
		<path class="st6" d="M439.7,655c1.7,0,3,1.3,3,3c0,0.1,0,0.1,0,0.2c0.1-0.3,0.2-0.7,0.2-1.1c0-1.7-1.3-3-3-3c-1.6,0-2.9,1.2-3,2.8
			C437.3,655.8,438.4,655,439.7,655z"/>
		<circle class="st7" cx="440.2" cy="655.8" r="1.4"/>
	</g>
	<g>
		<circle class="st6" cx="1017.4" cy="204.5" r="3"/>
		<path class="st6" d="M1017.2,202.4c1.7,0,3,1.3,3,3c0,0.1,0,0.1,0,0.2c0.1-0.3,0.2-0.7,0.2-1.1c0-1.7-1.3-3-3-3
			c-1.6,0-2.9,1.2-3,2.8C1014.8,203.2,1015.9,202.4,1017.2,202.4z"/>
		<circle class="st7" cx="1017.7" cy="203.2" r="1.4"/>
	</g>
	<g>
		<circle class="st6" cx="943.6" cy="620.1" r="3"/>
		<path class="st6" d="M943.5,618c1.7,0,3,1.3,3,3c0,0.1,0,0.1,0,0.2c0.1-0.3,0.2-0.7,0.2-1.1c0-1.7-1.3-3-3-3c-1.6,0-2.9,1.2-3,2.8
			C941.1,618.8,942.2,618,943.5,618z"/>
		<circle class="st7" cx="944" cy="618.8" r="1.4"/>
	</g>
	<g>
		<circle class="st6" cx="877.3" cy="233.8" r="3"/>
		<path class="st6" d="M877.1,231.7c1.7,0,3,1.3,3,3c0,0.1,0,0.1,0,0.2c0.1-0.3,0.2-0.7,0.2-1.1c0-1.7-1.3-3-3-3
			c-1.6,0-2.9,1.2-3,2.8C874.8,232.5,875.9,231.7,877.1,231.7z"/>
		<circle class="st7" cx="877.7" cy="232.5" r="1.4"/>
	</g>
	<g>
		<circle class="st6" cx="425.7" cy="664" r="3"/>
		<path class="st6" d="M425.5,661.9c1.7,0,3,1.3,3,3c0,0.1,0,0.1,0,0.2c0.1-0.3,0.2-0.7,0.2-1.1c0-1.7-1.3-3-3-3
			c-1.6,0-2.9,1.2-3,2.8C423.1,662.7,424.2,661.9,425.5,661.9z"/>
		<circle class="st7" cx="426" cy="662.8" r="1.4"/>
	</g>
	<g>
		<circle class="st6" cx="404.7" cy="203.4" r="3"/>
		<path class="st6" d="M404.5,201.3c1.7,0,3,1.3,3,3c0,0.1,0,0.1,0,0.2c0.1-0.3,0.2-0.7,0.2-1.1c0-1.7-1.3-3-3-3
			c-1.6,0-2.9,1.2-3,2.8C402.1,202.1,403.2,201.3,404.5,201.3z"/>
		<circle class="st7" cx="405" cy="202.2" r="1.4"/>
	</g>
	<g>
		<circle class="st6" cx="878.7" cy="127.9" r="3"/>
		<path class="st6" d="M878.5,125.8c1.7,0,3,1.3,3,3c0,0.1,0,0.1,0,0.2c0.1-0.3,0.2-0.7,0.2-1.1c0-1.7-1.3-3-3-3
			c-1.6,0-2.9,1.2-3,2.8C876.1,126.6,877.2,125.8,878.5,125.8z"/>
		<circle class="st7" cx="879" cy="126.7" r="1.4"/>
	</g>
	<g>
		<circle class="st6" cx="731.5" cy="600.9" r="3"/>
		<path class="st6" d="M731.3,598.8c1.7,0,3,1.3,3,3c0,0.1,0,0.1,0,0.2c0.1-0.3,0.2-0.7,0.2-1.1c0-1.7-1.3-3-3-3
			c-1.6,0-2.9,1.2-3,2.8C728.9,599.6,730,598.8,731.3,598.8z"/>
		<circle class="st7" cx="731.8" cy="599.6" r="1.4"/>
	</g>
	<g>
		<circle class="st6" cx="924.5" cy="695.8" r="3"/>
		<path class="st6" d="M924.3,693.7c1.7,0,3,1.3,3,3c0,0.1,0,0.1,0,0.2c0.1-0.3,0.2-0.7,0.2-1.1c0-1.7-1.3-3-3-3
			c-1.6,0-2.9,1.2-3,2.8C921.9,694.5,923,693.7,924.3,693.7z"/>
		<circle class="st7" cx="924.8" cy="694.5" r="1.4"/>
	</g>
	<g>
		<circle class="st6" cx="328.2" cy="748.6" r="3"/>
		<path class="st6" d="M328,746.5c1.7,0,3,1.3,3,3c0,0.1,0,0.1,0,0.2c0.1-0.3,0.2-0.7,0.2-1.1c0-1.7-1.3-3-3-3c-1.6,0-2.9,1.2-3,2.8
			C325.7,747.3,326.8,746.5,328,746.5z"/>
		<circle class="st7" cx="328.6" cy="747.3" r="1.4"/>
	</g>
	<g>
		<circle class="st6" cx="214.7" cy="508.6" r="3"/>
		<path class="st6" d="M214.6,506.5c1.7,0,3,1.3,3,3c0,0.1,0,0.1,0,0.2c0.1-0.3,0.2-0.7,0.2-1.1c0-1.7-1.3-3-3-3
			c-1.6,0-2.9,1.2-3,2.8C212.2,507.3,213.3,506.5,214.6,506.5z"/>
		<circle class="st7" cx="215.1" cy="507.3" r="1.4"/>
	</g>
	<g>
		<circle class="st6" cx="430.7" cy="603" r="3"/>
		<path class="st6" d="M430.5,600.9c1.7,0,3,1.3,3,3c0,0.1,0,0.1,0,0.2c0.1-0.3,0.2-0.7,0.2-1.1c0-1.7-1.3-3-3-3
			c-1.6,0-2.9,1.2-3,2.8C428.1,601.7,429.2,600.9,430.5,600.9z"/>
		<circle class="st7" cx="431" cy="601.7" r="1.4"/>
	</g>
	<g>
		<circle class="st6" cx="1035.5" cy="249.7" r="3"/>
		<path class="st6" d="M1035.3,247.6c1.7,0,3,1.3,3,3c0,0.1,0,0.1,0,0.2c0.1-0.3,0.2-0.7,0.2-1.1c0-1.7-1.3-3-3-3
			c-1.6,0-2.9,1.2-3,2.8C1032.9,248.4,1034,247.6,1035.3,247.6z"/>
		<circle class="st7" cx="1035.8" cy="248.5" r="1.4"/>
	</g>
	<g>
		<circle class="st6" cx="395.4" cy="240.9" r="3"/>
		<path class="st6" d="M395.2,238.8c1.7,0,3,1.3,3,3c0,0.1,0,0.1,0,0.2c0.1-0.3,0.2-0.7,0.2-1.1c0-1.7-1.3-3-3-3
			c-1.6,0-2.9,1.2-3,2.8C392.8,239.6,393.9,238.8,395.2,238.8z"/>
		<circle class="st7" cx="395.7" cy="239.7" r="1.4"/>
	</g>
	<g>
		<circle class="st6" cx="456.9" cy="114.3" r="3"/>
		<path class="st6" d="M456.7,112.2c1.7,0,3,1.3,3,3c0,0.1,0,0.1,0,0.2c0.1-0.3,0.2-0.7,0.2-1.1c0-1.7-1.3-3-3-3
			c-1.6,0-2.9,1.2-3,2.8C454.3,113,455.4,112.2,456.7,112.2z"/>
		<circle class="st7" cx="457.2" cy="113" r="1.4"/>
	</g>
	<g>
		<circle class="st6" cx="677.4" cy="873.8" r="3"/>
		<path class="st6" d="M677.3,871.7c1.7,0,3,1.3,3,3c0,0.1,0,0.1,0,0.2c0.1-0.3,0.2-0.7,0.2-1.1c0-1.7-1.3-3-3-3
			c-1.6,0-2.9,1.2-3,2.8C674.9,872.5,676,871.7,677.3,871.7z"/>
		<circle class="st7" cx="677.8" cy="872.6" r="1.4"/>
	</g>
	<g>
		<circle class="st6" cx="995.9" cy="500.1" r="3"/>
		<path class="st6" d="M995.7,498c1.7,0,3,1.3,3,3c0,0.1,0,0.1,0,0.2c0.1-0.3,0.2-0.7,0.2-1.1c0-1.7-1.3-3-3-3c-1.6,0-2.9,1.2-3,2.8
			C993.3,498.8,994.4,498,995.7,498z"/>
		<circle class="st7" cx="996.2" cy="498.9" r="1.4"/>
	</g>
	<g>
		<circle class="st6" cx="1095.7" cy="533.2" r="3"/>
		<path class="st6" d="M1095.5,531.1c1.7,0,3,1.3,3,3c0,0.1,0,0.1,0,0.2c0.1-0.3,0.2-0.7,0.2-1.1c0-1.7-1.3-3-3-3
			c-1.6,0-2.9,1.2-3,2.8C1093.2,531.9,1094.3,531.1,1095.5,531.1z"/>
		<circle class="st7" cx="1096.1" cy="532" r="1.4"/>
	</g>
	<g>
		<circle class="st6" cx="543.2" cy="345.8" r="3"/>
		<path class="st6" d="M543,343.7c1.7,0,3,1.3,3,3c0,0.1,0,0.1,0,0.2c0.1-0.3,0.2-0.7,0.2-1.1c0-1.7-1.3-3-3-3c-1.6,0-2.9,1.2-3,2.8
			C540.6,344.5,541.7,343.7,543,343.7z"/>
		<circle class="st7" cx="543.5" cy="344.6" r="1.4"/>
	</g>
	<g>
		<circle class="st6" cx="1007.7" cy="252.6" r="3"/>
		<path class="st6" d="M1007.5,250.4c1.7,0,3,1.3,3,3c0,0.1,0,0.1,0,0.2c0.1-0.3,0.2-0.7,0.2-1.1c0-1.7-1.3-3-3-3
			c-1.6,0-2.9,1.2-3,2.8C1005.1,251.2,1006.2,250.4,1007.5,250.4z"/>
		<circle class="st7" cx="1008" cy="251.3" r="1.4"/>
	</g>
	<g>
		<circle class="st6" cx="460.9" cy="535.9" r="3"/>
		<path class="st6" d="M460.7,533.7c1.7,0,3,1.3,3,3c0,0.1,0,0.1,0,0.2c0.1-0.3,0.2-0.7,0.2-1.1c0-1.7-1.3-3-3-3
			c-1.6,0-2.9,1.2-3,2.8C458.4,534.6,459.5,533.7,460.7,533.7z"/>
		<circle class="st7" cx="461.3" cy="534.6" r="1.4"/>
	</g>
	<g>
		<circle class="st6" cx="1046.6" cy="453.9" r="3"/>
		<path class="st6" d="M1046.4,451.8c1.7,0,3,1.3,3,3c0,0.1,0,0.1,0,0.2c0.1-0.3,0.2-0.7,0.2-1.1c0-1.7-1.3-3-3-3
			c-1.6,0-2.9,1.2-3,2.8C1044.1,452.6,1045.1,451.8,1046.4,451.8z"/>
		<circle class="st7" cx="1047" cy="452.6" r="1.4"/>
	</g>
	<g>
		<circle class="st6" cx="994.8" cy="635.7" r="3"/>
		<path class="st6" d="M994.6,633.6c1.7,0,3,1.3,3,3c0,0.1,0,0.1,0,0.2c0.1-0.3,0.2-0.7,0.2-1.1c0-1.7-1.3-3-3-3
			c-1.6,0-2.9,1.2-3,2.8C992.2,634.4,993.3,633.6,994.6,633.6z"/>
		<circle class="st7" cx="995.1" cy="634.5" r="1.4"/>
	</g>
	<g>
		<circle class="st6" cx="1089.7" cy="578.5" r="3"/>
		<path class="st6" d="M1089.5,576.4c1.7,0,3,1.3,3,3c0,0.1,0,0.1,0,0.2c0.1-0.3,0.2-0.7,0.2-1.1c0-1.7-1.3-3-3-3
			c-1.6,0-2.9,1.2-3,2.8C1087.2,577.2,1088.3,576.4,1089.5,576.4z"/>
		<circle class="st7" cx="1090.1" cy="577.3" r="1.4"/>
	</g>
	<g>
		<circle class="st6" cx="833.6" cy="367.9" r="3"/>
		<path class="st6" d="M833.5,365.8c1.7,0,3,1.3,3,3c0,0.1,0,0.1,0,0.2c0.1-0.3,0.2-0.7,0.2-1.1c0-1.7-1.3-3-3-3
			c-1.6,0-2.9,1.2-3,2.8C831.1,366.6,832.2,365.8,833.5,365.8z"/>
		<circle class="st7" cx="834" cy="366.7" r="1.4"/>
	</g>
	<g>
		<circle class="st6" cx="940.7" cy="251.3" r="3"/>
		<path class="st6" d="M940.5,249.2c1.7,0,3,1.3,3,3c0,0.1,0,0.1,0,0.2c0.1-0.3,0.2-0.7,0.2-1.1c0-1.7-1.3-3-3-3
			c-1.6,0-2.9,1.2-3,2.8C938.1,250,939.2,249.2,940.5,249.2z"/>
		<circle class="st7" cx="941" cy="250" r="1.4"/>
	</g>
	<g>
		<circle class="st6" cx="366.4" cy="352.3" r="3"/>
		<path class="st6" d="M366.3,350.2c1.7,0,3,1.3,3,3c0,0.1,0,0.1,0,0.2c0.1-0.3,0.2-0.7,0.2-1.1c0-1.7-1.3-3-3-3
			c-1.6,0-2.9,1.2-3,2.8C363.9,351,365,350.2,366.3,350.2z"/>
		<circle class="st7" cx="366.8" cy="351.1" r="1.4"/>
	</g>
	<g>
		<circle class="st6" cx="425.7" cy="626.8" r="3"/>
		<path class="st6" d="M425.5,624.7c1.7,0,3,1.3,3,3c0,0.1,0,0.1,0,0.2c0.1-0.3,0.2-0.7,0.2-1.1c0-1.7-1.3-3-3-3
			c-1.6,0-2.9,1.2-3,2.8C423.1,625.5,424.2,624.7,425.5,624.7z"/>
		<circle class="st7" cx="426" cy="625.5" r="1.4"/>
	</g>
	<g>
		<circle class="st6" cx="486.7" cy="154.2" r="3"/>
		<path class="st6" d="M486.6,152.1c1.7,0,3,1.3,3,3c0,0.1,0,0.1,0,0.2c0.1-0.3,0.2-0.7,0.2-1.1c0-1.7-1.3-3-3-3
			c-1.6,0-2.9,1.2-3,2.8C484.2,152.9,485.3,152.1,486.6,152.1z"/>
		<circle class="st7" cx="487.1" cy="153" r="1.4"/>
	</g>
	<g>
		<circle class="st6" cx="948.5" cy="600.7" r="3"/>
		<path class="st6" d="M948.4,598.6c1.7,0,3,1.3,3,3c0,0.1,0,0.1,0,0.2c0.1-0.3,0.2-0.7,0.2-1.1c0-1.7-1.3-3-3-3
			c-1.6,0-2.9,1.2-3,2.8C946,599.4,947.1,598.6,948.4,598.6z"/>
		<circle class="st7" cx="948.9" cy="599.5" r="1.4"/>
	</g>
	<g>
		<circle class="st6" cx="1050" cy="575.5" r="3"/>
		<path class="st6" d="M1049.8,573.4c1.7,0,3,1.3,3,3c0,0.1,0,0.1,0,0.2c0.1-0.3,0.2-0.7,0.2-1.1c0-1.7-1.3-3-3-3
			c-1.6,0-2.9,1.2-3,2.8C1047.4,574.2,1048.5,573.4,1049.8,573.4z"/>
		<circle class="st7" cx="1050.3" cy="574.3" r="1.4"/>
	</g>
	<g>
		<circle class="st6" cx="518.2" cy="276.3" r="3"/>
		<path class="st6" d="M518,274.2c1.7,0,3,1.3,3,3c0,0.1,0,0.1,0,0.2c0.1-0.3,0.2-0.7,0.2-1.1c0-1.7-1.3-3-3-3c-1.6,0-2.9,1.2-3,2.8
			C515.6,275,516.7,274.2,518,274.2z"/>
		<circle class="st7" cx="518.5" cy="275" r="1.4"/>
	</g>
	<g>
		<circle class="st6" cx="856.8" cy="209.4" r="3"/>
		<path class="st6" d="M856.6,207.3c1.7,0,3,1.3,3,3c0,0.1,0,0.1,0,0.2c0.1-0.3,0.2-0.7,0.2-1.1c0-1.7-1.3-3-3-3
			c-1.6,0-2.9,1.2-3,2.8C854.3,208.1,855.4,207.3,856.6,207.3z"/>
		<circle class="st7" cx="857.2" cy="208.2" r="1.4"/>
	</g>
	<g>
		<circle class="st6" cx="331.2" cy="559" r="3"/>
		<path class="st6" d="M331,556.9c1.7,0,3,1.3,3,3c0,0.1,0,0.1,0,0.2c0.1-0.3,0.2-0.7,0.2-1.1c0-1.7-1.3-3-3-3c-1.6,0-2.9,1.2-3,2.8
			C328.7,557.7,329.7,556.9,331,556.9z"/>
		<circle class="st7" cx="331.6" cy="557.7" r="1.4"/>
	</g>
	<g>
		<circle class="st6" cx="475.5" cy="624" r="3"/>
		<path class="st6" d="M475.3,621.9c1.7,0,3,1.3,3,3c0,0.1,0,0.1,0,0.2c0.1-0.3,0.2-0.7,0.2-1.1c0-1.7-1.3-3-3-3
			c-1.6,0-2.9,1.2-3,2.8C473,622.7,474.1,621.9,475.3,621.9z"/>
		<circle class="st7" cx="475.9" cy="622.7" r="1.4"/>
	</g>
	<g>
		<circle class="st6" cx="976" cy="803.4" r="3"/>
		<path class="st6" d="M975.8,801.3c1.7,0,3,1.3,3,3c0,0.1,0,0.1,0,0.2c0.1-0.3,0.2-0.7,0.2-1.1c0-1.7-1.3-3-3-3
			c-1.6,0-2.9,1.2-3,2.8C973.4,802.1,974.5,801.3,975.8,801.3z"/>
		<circle class="st7" cx="976.3" cy="802.1" r="1.4"/>
	</g>
	<g>
		<circle class="st6" cx="847.3" cy="285.7" r="3"/>
		<path class="st6" d="M847.1,283.6c1.7,0,3,1.3,3,3c0,0.1,0,0.1,0,0.2c0.1-0.3,0.2-0.7,0.2-1.1c0-1.7-1.3-3-3-3
			c-1.6,0-2.9,1.2-3,2.8C844.7,284.4,845.8,283.6,847.1,283.6z"/>
		<circle class="st7" cx="847.6" cy="284.5" r="1.4"/>
	</g>
	<g>
		<circle class="st6" cx="432.8" cy="685.2" r="7.1"/>
		<path class="st6" d="M432.3,680.2c3.9,0,7.1,3.2,7.1,7.1c0,0.1,0,0.3,0,0.4c0.3-0.8,0.5-1.6,0.5-2.5c0-3.9-3.2-7.1-7.1-7.1
			c-3.8,0-6.9,3-7.1,6.7C426.7,682.1,429.3,680.2,432.3,680.2z"/>
		<circle class="st7" cx="433.6" cy="682.2" r="3.4"/>
	</g>
	<g>
		<circle class="st6" cx="1034.7" cy="800.8" r="7.1"/>
		<path class="st6" d="M1034.2,795.8c3.9,0,7.1,3.2,7.1,7.1c0,0.1,0,0.3,0,0.4c0.3-0.8,0.5-1.6,0.5-2.5c0-3.9-3.2-7.1-7.1-7.1
			c-3.8,0-6.9,3-7.1,6.7C1028.6,797.7,1031.2,795.8,1034.2,795.8z"/>
		<circle class="st7" cx="1035.5" cy="797.8" r="3.4"/>
	</g>
	<g>
		<circle class="st6" cx="716.5" cy="910.4" r="7.1"/>
		<path class="st6" d="M716,905.4c3.9,0,7.1,3.2,7.1,7.1c0,0.1,0,0.3,0,0.4c0.3-0.8,0.5-1.6,0.5-2.5c0-3.9-3.2-7.1-7.1-7.1
			c-3.8,0-6.9,3-7.1,6.7C710.4,907.3,713,905.4,716,905.4z"/>
		<circle class="st7" cx="717.3" cy="907.4" r="3.4"/>
	</g>
	<g>
		<circle class="st6" cx="424" cy="262.2" r="7.1"/>
		<path class="st6" d="M423.6,257.2c3.9,0,7.1,3.2,7.1,7.1c0,0.1,0,0.3,0,0.4c0.3-0.8,0.5-1.6,0.5-2.5c0-3.9-3.2-7.1-7.1-7.1
			c-3.8,0-6.9,3-7.1,6.7C418,259.2,420.5,257.2,423.6,257.2z"/>
		<circle class="st7" cx="424.8" cy="259.3" r="3.4"/>
	</g>
	<g>
		<circle class="st6" cx="867" cy="254.8" r="7.1"/>
		<path class="st6" d="M866.6,249.8c3.9,0,7.1,3.2,7.1,7.1c0,0.1,0,0.3,0,0.4c0.3-0.8,0.5-1.6,0.5-2.5c0-3.9-3.2-7.1-7.1-7.1
			c-3.8,0-6.9,3-7.1,6.7C861,251.7,863.5,249.8,866.6,249.8z"/>
		<circle class="st7" cx="867.8" cy="251.8" r="3.4"/>
	</g>
	<g>
		<circle class="st6" cx="929" cy="623.1" r="7.1"/>
		<path class="st6" d="M928.5,618.1c3.9,0,7.1,3.2,7.1,7.1c0,0.1,0,0.3,0,0.4c0.3-0.8,0.5-1.6,0.5-2.5c0-3.9-3.2-7.1-7.1-7.1
			c-3.8,0-6.9,3-7.1,6.7C922.9,620,925.5,618.1,928.5,618.1z"/>
		<circle class="st7" cx="929.7" cy="620.1" r="3.4"/>
	</g>
	<g>
		<circle class="st6" cx="1010.3" cy="528.7" r="7.1"/>
		<path class="st6" d="M1009.8,523.8c3.9,0,7.1,3.2,7.1,7.1c0,0.1,0,0.3,0,0.4c0.3-0.8,0.5-1.6,0.5-2.5c0-3.9-3.2-7.1-7.1-7.1
			c-3.8,0-6.9,3-7.1,6.7C1004.2,525.7,1006.8,523.8,1009.8,523.8z"/>
		<circle class="st7" cx="1011.1" cy="525.8" r="3.4"/>
	</g>
	<g>
		<circle class="st6" cx="1134.5" cy="600.7" r="7.1"/>
		<path class="st6" d="M1134,595.7c3.9,0,7.1,3.2,7.1,7.1c0,0.1,0,0.3,0,0.4c0.3-0.8,0.5-1.6,0.5-2.5c0-3.9-3.2-7.1-7.1-7.1
			c-3.8,0-6.9,3-7.1,6.7C1128.4,597.6,1131,595.7,1134,595.7z"/>
		<circle class="st7" cx="1135.3" cy="597.7" r="3.4"/>
	</g>
	<g>
		<circle class="st6" cx="444.9" cy="840.1" r="7.1"/>
		<path class="st6" d="M444.5,835.1c3.9,0,7.1,3.2,7.1,7.1c0,0.1,0,0.3,0,0.4c0.3-0.8,0.5-1.6,0.5-2.5c0-3.9-3.2-7.1-7.1-7.1
			c-3.8,0-6.9,3-7.1,6.7C438.9,837,441.5,835.1,444.5,835.1z"/>
		<circle class="st7" cx="445.7" cy="837.1" r="3.4"/>
	</g>
	<g>
		<circle class="st6" cx="613.3" cy="436.9" r="7.1"/>
		<path class="st6" d="M612.8,431.9c3.9,0,7.1,3.2,7.1,7.1c0,0.1,0,0.3,0,0.4c0.3-0.8,0.5-1.6,0.5-2.5c0-3.9-3.2-7.1-7.1-7.1
			c-3.8,0-6.9,3-7.1,6.7C607.2,433.8,609.8,431.9,612.8,431.9z"/>
		<circle class="st7" cx="614.1" cy="433.9" r="3.4"/>
	</g>
	<g>
		<circle class="st6" cx="287.7" cy="762.2" r="7.1"/>
		<path class="st6" d="M287.2,757.2c3.9,0,7.1,3.2,7.1,7.1c0,0.1,0,0.3,0,0.4c0.3-0.8,0.5-1.6,0.5-2.5c0-3.9-3.2-7.1-7.1-7.1
			c-3.8,0-6.9,3-7.1,6.7C281.6,759.1,284.2,757.2,287.2,757.2z"/>
		<circle class="st7" cx="288.5" cy="759.2" r="3.4"/>
	</g>
	<g>
		<circle class="st6" cx="304.5" cy="523.3" r="7.1"/>
		<path class="st6" d="M304,518.3c3.9,0,7.1,3.2,7.1,7.1c0,0.1,0,0.3,0,0.4c0.3-0.8,0.5-1.6,0.5-2.5c0-3.9-3.2-7.1-7.1-7.1
			c-3.8,0-6.9,3-7.1,6.7C298.4,520.2,301,518.3,304,518.3z"/>
		<circle class="st7" cx="305.3" cy="520.3" r="3.4"/>
	</g>
	<g>
		<circle class="st6" cx="394.6" cy="525.2" r="7.1"/>
		<path class="st6" d="M394.1,520.2c3.9,0,7.1,3.2,7.1,7.1c0,0.1,0,0.3,0,0.4c0.3-0.8,0.5-1.6,0.5-2.5c0-3.9-3.2-7.1-7.1-7.1
			c-3.8,0-6.9,3-7.1,6.7C388.5,522.1,391.1,520.2,394.1,520.2z"/>
		<circle class="st7" cx="395.4" cy="522.2" r="3.4"/>
	</g>
	<g>
		<circle class="st6" cx="534.8" cy="313" r="7.1"/>
		<path class="st6" d="M534.3,308c3.9,0,7.1,3.2,7.1,7.1c0,0.1,0,0.3,0,0.4c0.3-0.8,0.5-1.6,0.5-2.5c0-3.9-3.2-7.1-7.1-7.1
			c-3.8,0-6.9,3-7.1,6.7C528.7,309.9,531.3,308,534.3,308z"/>
		<circle class="st7" cx="535.6" cy="310" r="3.4"/>
	</g>
	<g>
		<circle class="st6" cx="1045.8" cy="288" r="7.1"/>
		<path class="st6" d="M1045.4,283c3.9,0,7.1,3.2,7.1,7.1c0,0.1,0,0.3,0,0.4c0.3-0.8,0.5-1.6,0.5-2.5c0-3.9-3.2-7.1-7.1-7.1
			c-3.8,0-6.9,3-7.1,6.7C1039.8,284.9,1042.3,283,1045.4,283z"/>
		<circle class="st7" cx="1046.6" cy="285" r="3.4"/>
	</g>
	<g>
		<circle class="st6" cx="946.2" cy="741.5" r="7.1"/>
		<path class="st6" d="M945.8,736.5c3.9,0,7.1,3.2,7.1,7.1c0,0.1,0,0.3,0,0.4c0.3-0.8,0.5-1.6,0.5-2.5c0-3.9-3.2-7.1-7.1-7.1
			c-3.8,0-6.9,3-7.1,6.7C940.2,738.4,942.8,736.5,945.8,736.5z"/>
		<circle class="st7" cx="947" cy="738.5" r="3.4"/>
	</g>
	<g>
		<circle class="st6" cx="934.5" cy="817.9" r="15.1"/>
		<path class="st6" d="M933.5,807.2c8.3,0,15.1,6.8,15.1,15.1c0,0.3,0,0.6,0,0.9c0.6-1.7,1-3.5,1-5.4c0-8.3-6.8-15.1-15.1-15.1
			c-8,0-14.6,6.3-15.1,14.2C921.5,811.3,927.1,807.2,933.5,807.2z"/>
		<circle class="st7" cx="936.2" cy="811.5" r="7.2"/>
	</g>
	<g>
		<circle class="st6" cx="877.7" cy="306.4" r="15.1"/>
		<path class="st6" d="M876.7,295.8c8.3,0,15.1,6.8,15.1,15.1c0,0.3,0,0.6,0,0.9c0.6-1.7,1-3.5,1-5.4c0-8.3-6.8-15.1-15.1-15.1
			c-8,0-14.6,6.3-15.1,14.2C864.7,299.8,870.2,295.8,876.7,295.8z"/>
		<circle class="st7" cx="879.4" cy="300" r="7.2"/>
	</g>
	<g>
		<circle class="st6" cx="1001.4" cy="667" r="15.1"/>
		<path class="st6" d="M1000.4,656.3c8.3,0,15.1,6.8,15.1,15.1c0,0.3,0,0.6,0,0.9c0.6-1.7,1-3.5,1-5.4c0-8.3-6.8-15.1-15.1-15.1
			c-8,0-14.6,6.3-15.1,14.2C988.5,660.4,994,656.3,1000.4,656.3z"/>
		<circle class="st7" cx="1003.1" cy="660.6" r="7.2"/>
	</g>
	<g>
		<circle class="st6" cx="343.3" cy="784.6" r="15.1"/>
		<path class="st6" d="M342.4,773.9c8.3,0,15.1,6.8,15.1,15.1c0,0.3,0,0.6,0,0.9c0.6-1.7,1-3.5,1-5.4c0-8.3-6.8-15.1-15.1-15.1
			c-8,0-14.6,6.3-15.1,14.2C330.4,778,335.9,773.9,342.4,773.9z"/>
		<circle class="st7" cx="345" cy="778.2" r="7.2"/>
	</g>
	<g>
		<circle class="st6" cx="384.5" cy="282.7" r="15.1"/>
		<path class="st6" d="M383.6,272c8.3,0,15.1,6.8,15.1,15.1c0,0.3,0,0.6,0,0.9c0.6-1.7,1-3.5,1-5.4c0-8.3-6.8-15.1-15.1-15.1
			c-8,0-14.6,6.3-15.1,14.2C371.6,276.1,377.1,272,383.6,272z"/>
		<circle class="st7" cx="386.2" cy="276.3" r="7.2"/>
	</g>
	<g>
		<circle class="st6" cx="773.3" cy="510.5" r="15.1"/>
		<path class="st6" d="M772.4,499.9c8.3,0,15.1,6.8,15.1,15.1c0,0.3,0,0.6,0,0.9c0.6-1.7,1-3.5,1-5.4c0-8.3-6.8-15.1-15.1-15.1
			c-8,0-14.6,6.3-15.1,14.2C760.4,503.9,765.9,499.9,772.4,499.9z"/>
		<circle class="st7" cx="775" cy="504.1" r="7.2"/>
	</g>
	<g>
		<circle class="st6" cx="948.5" cy="543.9" r="15.1"/>
		<path class="st6" d="M947.6,533.2c8.3,0,15.1,6.8,15.1,15.1c0,0.3,0,0.6,0,0.9c0.6-1.7,1-3.5,1-5.4c0-8.3-6.8-15.1-15.1-15.1
			c-8,0-14.6,6.3-15.1,14.2C935.6,537.3,941.1,533.2,947.6,533.2z"/>
		<circle class="st7" cx="950.2" cy="537.5" r="7.2"/>
	</g>
</g>
<g id="text">
</g>
</svg>
