<?xml version="1.0" standalone="no"?>
<!DOCTYPE svg PUBLIC "-//W3C//DTD SVG 20010904//EN"
 "http://www.w3.org/TR/2001/REC-SVG-20010904/DTD/svg10.dtd">
<svg version="1.0" xmlns="http://www.w3.org/2000/svg"
 width="741.000000pt" height="741.000000pt" viewBox="0 0 741.000000 741.000000"
 preserveAspectRatio="xMidYMid meet">
<metadata>
Created by potrace 1.11, written by Peter Selinger 2001-2013
</metadata>
<g transform="translate(0.000000,741.000000) scale(0.100000,-0.100000)"
fill="#000000" stroke="none">
<path d="M3628 7334 c-3 -2 -54 -7 -114 -9 -106 -4 -193 -12 -224 -20 -8 -2
-34 -7 -57 -10 -68 -9 -242 -61 -308 -91 -33 -15 -66 -28 -72 -30 -7 -1 -24
-12 -39 -23 -15 -12 -33 -21 -40 -21 -8 0 -14 -4 -14 -8 0 -4 -15 -16 -32 -27
-31 -18 -154 -137 -188 -180 -45 -59 -142 -281 -154 -352 -2 -15 -5 -28 -6
-28 -1 0 -3 -9 -5 -20 -2 -11 -6 -31 -8 -45 -17 -86 -25 -302 -12 -360 3 -14
7 -38 10 -55 6 -45 15 -86 27 -130 5 -22 10 -42 10 -45 0 -3 7 -23 15 -45 57
-152 84 -216 145 -335 l69 -135 -16 -63 c-8 -35 -13 -67 -10 -72 3 -5 1 -11
-4 -15 -6 -3 -8 -11 -6 -18 2 -7 6 -39 9 -72 13 -128 107 -266 226 -329 30
-16 57 -30 58 -32 12 -9 -24 -78 -54 -103 -80 -71 -179 -102 -304 -97 -157 7
-289 72 -595 291 -186 133 -303 196 -395 214 -108 21 -268 12 -370 -21 -19 -7
-40 -13 -46 -14 -19 -3 -128 -57 -169 -83 -51 -34 -81 -58 -119 -100 -17 -19
-36 -39 -42 -45 -41 -43 -98 -171 -112 -250 -13 -76 -6 -248 12 -316 10 -36
19 -69 20 -75 23 -86 99 -211 175 -285 52 -52 168 -133 182 -127 3 1 12 -3 20
-10 14 -11 89 -39 133 -50 84 -19 169 -20 253 -3 93 20 374 17 461 -4 40 -10
75 -22 78 -27 3 -5 -12 -23 -33 -41 -37 -33 -149 -144 -189 -190 -42 -48 -129
-203 -140 -253 -10 -42 -13 -50 -14 -50 -9 0 -24 -202 -23 -305 3 -248 73
-451 201 -585 l47 -48 -53 -53 c-57 -58 -114 -160 -133 -239 -21 -88 -19 -247
4 -350 47 -205 180 -383 357 -476 160 -83 352 -111 469 -67 58 22 126 83 150
134 7 16 17 36 20 44 28 59 -1 203 -53 262 -27 31 -114 98 -126 98 -5 0 0 -23
10 -51 48 -131 40 -257 -18 -260 -9 0 -25 -2 -34 -4 -10 -2 -45 3 -79 11 -219
51 -352 217 -343 427 6 109 51 173 164 231 30 16 67 35 82 42 14 8 34 14 45
14 18 0 91 -23 128 -40 11 -5 41 -16 67 -24 26 -9 56 -20 65 -24 10 -5 54 -26
98 -47 44 -21 82 -41 85 -44 3 -4 23 -18 46 -34 91 -61 185 -167 224 -252 34
-75 33 -173 -2 -245 -59 -119 -163 -193 -373 -265 -60 -21 -130 -47 -155 -58
-25 -11 -48 -21 -52 -21 -4 -1 -34 -20 -66 -44 -80 -58 -129 -129 -149 -217
-11 -44 -7 -224 4 -267 35 -125 123 -224 236 -264 127 -45 310 -13 395 68 17
18 32 38 32 45 0 7 4 13 8 13 4 0 14 17 21 38 8 20 16 43 19 50 3 8 -25 -7
-62 -32 -71 -48 -152 -78 -226 -82 -114 -5 -180 73 -173 206 3 63 5 80 16 98
5 6 5 12 2 12 -10 0 36 63 65 88 22 19 147 90 160 91 29 0 372 151 390 171 3
3 18 14 35 24 62 40 145 120 181 177 16 24 31 46 34 49 13 11 59 132 67 172 9
53 9 241 0 286 -13 60 -59 186 -89 247 -69 136 -183 270 -298 350 -30 21 -58
41 -63 45 -4 4 2 17 13 30 11 13 30 55 42 94 24 75 27 162 17 471 -5 169 5
205 80 283 31 33 65 64 76 70 19 10 20 7 21 -96 0 -110 11 -319 18 -382 3 -19
7 -57 10 -85 3 -27 8 -63 11 -80 6 -36 15 -91 21 -125 10 -53 48 -186 61 -212
7 -15 13 -30 13 -33 0 -3 1 -7 1 -10 1 -3 2 -8 3 -12 3 -16 40 -89 57 -113 9
-14 17 -27 16 -30 -1 -8 54 -94 76 -117 11 -13 17 -23 13 -23 -4 0 5 -12 19
-27 14 -15 25 -31 25 -35 0 -3 8 -14 17 -24 10 -9 38 -42 63 -73 25 -31 55
-67 67 -81 27 -31 132 -160 156 -191 9 -13 18 -30 18 -39 9 -111 48 -217 118
-319 34 -50 33 -70 -7 -150 -61 -122 -225 -235 -342 -235 -151 1 -187 117 -96
307 31 66 33 72 15 75 -19 3 -81 -22 -113 -48 -168 -131 -185 -316 -42 -462
26 -27 50 -48 54 -48 5 0 17 -8 28 -18 17 -16 121 -70 169 -88 48 -17 194 -25
245 -12 19 5 43 10 53 13 136 32 334 207 398 353 15 36 27 37 99 5 19 -8 44
-19 55 -24 11 -5 44 -18 73 -29 80 -30 162 -78 194 -114 44 -47 59 -92 61
-181 2 -102 -20 -149 -82 -182 -42 -22 -94 -25 -168 -9 -44 9 -153 67 -183 98
l-31 31 7 -29 c18 -76 74 -153 135 -184 97 -50 250 -59 349 -21 58 22 160 103
160 127 0 8 4 14 8 14 12 0 39 63 56 126 16 61 19 192 5 253 -36 162 -146 254
-404 340 -79 26 -216 83 -233 96 -1 1 -4 47 -6 101 -6 141 -34 254 -90 359 -9
17 -16 35 -16 41 0 19 129 142 194 184 33 23 97 58 141 79 84 41 302 121 328
121 31 0 180 -84 221 -124 48 -48 67 -100 67 -185 1 -139 -63 -256 -184 -340
-25 -17 -48 -31 -51 -31 -2 0 -17 -5 -33 -11 -15 -6 -29 -11 -30 -11 -153 -38
-195 -27 -208 52 -6 41 18 167 40 210 17 33 14 36 -18 19 -24 -13 -42 -28 -89
-74 -35 -34 -83 -129 -73 -145 3 -5 2 -10 -3 -10 -9 0 -8 -51 1 -101 13 -70
77 -148 152 -187 41 -21 66 -26 140 -28 195 -5 373 67 513 208 81 81 77 75
133 175 84 149 109 421 54 578 -20 59 -66 134 -113 186 l-53 58 41 43 c23 24
49 55 58 71 9 15 20 27 24 27 4 0 8 8 8 18 0 10 8 27 18 38 9 11 18 24 19 29
1 6 11 35 22 64 37 99 52 206 53 371 1 198 -25 337 -81 430 -11 19 -26 46 -33
60 -7 14 -15 27 -18 30 -3 3 -17 21 -31 40 -37 49 -179 193 -212 215 -35 22
-31 35 17 52 98 33 406 37 536 5 74 -18 232 8 339 55 228 101 383 316 418 578
7 57 7 205 0 250 -18 102 -88 227 -176 312 -36 35 -161 117 -202 132 -19 7
-43 17 -54 21 -32 14 -91 31 -122 36 -15 2 -43 7 -61 10 -42 7 -177 6 -217 -1
-77 -14 -220 -77 -281 -124 -12 -9 -30 -22 -40 -29 -36 -23 -249 -172 -259
-180 -61 -47 -305 -173 -305 -157 0 2 -17 -2 -37 -9 -53 -18 -174 -18 -236 1
-110 32 -195 99 -211 164 -5 23 -1 28 27 40 102 41 197 148 237 268 17 51 20
81 17 145 -2 45 -6 88 -9 96 -19 62 -18 79 3 116 71 124 185 382 204 464 2 8
13 54 24 101 39 167 45 358 16 499 -3 14 -8 38 -11 54 -2 16 -7 32 -9 36 -2 3
-6 17 -9 31 -9 46 -45 136 -91 226 -49 98 -140 207 -217 259 -23 16 -49 34
-55 41 -21 20 -184 97 -253 120 -131 45 -309 78 -465 88 -27 2 -52 4 -55 5 -3
1 -9 1 -15 0 -27 -5 -172 -3 -181 3 -6 3 -14 4 -16 1z m-2236 -2693 c54 -21
126 -81 256 -213 404 -414 480 -477 632 -524 3 -1 20 -5 38 -9 39 -9 50 -23
25 -32 -10 -3 -49 -26 -86 -50 -37 -23 -72 -43 -77 -43 -6 0 -10 -4 -10 -8 0
-4 -14 -16 -30 -25 -29 -17 -30 -17 -37 -1 -18 48 -118 146 -180 177 -85 42
-163 56 -358 62 -219 7 -287 15 -365 43 -61 21 -128 63 -135 85 -4 9 -11 17
-16 17 -5 0 -21 25 -35 55 -53 117 -17 262 91 371 94 95 198 129 287 95z
m4725 0 c44 -12 118 -63 165 -114 15 -16 42 -59 60 -95 29 -58 33 -77 33 -142
0 -86 -17 -128 -74 -188 -84 -90 -180 -115 -486 -127 -228 -9 -286 -20 -378
-68 -56 -30 -130 -100 -164 -158 l-16 -27 -58 39 c-32 21 -63 39 -68 39 -6 0
-11 4 -11 10 0 5 -11 12 -25 16 -14 3 -25 10 -25 14 0 4 -13 13 -30 20 -16 7
-30 16 -30 20 0 4 24 12 53 19 132 29 247 111 448 317 364 372 383 389 459
422 49 21 81 21 147 3z m-2077 -1398 c8 -4 17 -9 20 -12 3 -3 23 -18 45 -33
60 -41 150 -133 169 -172 30 -63 34 -123 21 -311 -17 -256 0 -380 61 -462 l25
-32 -42 -26 c-55 -36 -92 -67 -170 -146 l-65 -67 -56 101 c-78 144 -122 265
-135 377 -8 65 -7 294 1 370 18 164 23 203 41 315 25 146 22 140 48 121 12 -9
29 -19 37 -23z m-1645 -214 c9 -73 18 -125 28 -154 3 -11 8 -31 11 -45 5 -22
14 -58 32 -125 3 -11 7 -56 9 -100 4 -117 -28 -169 -87 -139 -139 72 -198 159
-201 294 -1 90 34 160 126 246 38 36 71 63 73 61 3 -2 7 -20 9 -38z m2676 -33
c99 -99 133 -204 104 -316 -25 -93 -74 -149 -188 -210 l-38 -21 -29 31 c-26
28 -28 35 -28 115 0 47 4 88 9 91 5 3 7 9 4 13 -2 5 3 33 12 62 31 102 54 213
62 302 2 14 35 -10 92 -67z"/>
</g>
</svg>
